<svg width="500" height="500" viewBox="0 0 500 500" fill="none" xmlns="http://www.w3.org/2000/svg">
<rect width="500" height="500" fill="#F8B319"/>
<path d="M142.07 291.065C142.07 292.997 141.45 294.857 140.216 296.648C138.992 298.44 137.117 299.784 134.591 300.669L141.424 311.753H132.882L126.653 301.607H124.862L122.903 311.753H115.403L121.112 281.878H131.341C133.45 281.878 135.32 282.263 136.945 283.023C138.57 283.773 139.825 284.846 140.716 286.232C141.617 287.607 142.07 289.221 142.07 291.065ZM127.424 288.148L126.007 295.461H129.612C131.138 295.461 132.309 295.086 133.132 294.336C133.966 293.575 134.382 292.622 134.382 291.482C134.382 290.497 134.013 289.7 133.278 289.086C132.554 288.461 131.596 288.148 130.403 288.148H127.424Z" fill="white"/>
<path d="M153.788 312.315C151.83 312.315 149.986 311.883 148.267 311.023C146.543 310.148 145.163 308.914 144.121 307.315C143.08 305.721 142.559 303.914 142.559 301.898C142.559 299.565 143.132 297.414 144.288 295.44C145.439 293.456 147.038 291.888 149.08 290.732C151.132 289.581 153.439 289.003 155.996 289.003C158.022 289.003 159.897 289.45 161.621 290.336C163.34 291.211 164.71 292.45 165.726 294.044C166.752 295.643 167.267 297.45 167.267 299.461C167.267 301.825 166.684 303.992 165.517 305.961C164.351 307.919 162.736 309.471 160.684 310.607C158.642 311.747 156.34 312.315 153.788 312.315ZM154.434 305.94C155.627 305.94 156.653 305.664 157.517 305.107C158.392 304.539 159.059 303.789 159.517 302.857C159.986 301.93 160.226 300.971 160.226 299.982C160.226 298.706 159.772 297.622 158.871 296.732C157.981 295.831 156.83 295.378 155.413 295.378C154.246 295.378 153.215 295.664 152.33 296.232C151.455 296.789 150.788 297.534 150.33 298.461C149.871 299.393 149.642 300.367 149.642 301.378C149.642 302.659 150.085 303.742 150.976 304.628C151.877 305.503 153.028 305.94 154.434 305.94Z" fill="white"/>
<path d="M179.167 295.836L177.938 302.148C177.865 302.497 177.834 302.742 177.834 302.877C177.834 303.669 178.105 304.294 178.646 304.752C179.188 305.211 179.901 305.44 180.792 305.44H182.459L181.209 311.752H178.438C175.907 311.752 173.943 311.122 172.542 309.857C171.151 308.596 170.459 306.893 170.459 304.752C170.459 304.185 170.526 303.518 170.667 302.752L172.042 295.836H168.417L169.646 289.565H173.271L174.438 283.669H181.563L180.396 289.565H185.521L184.292 295.836H179.167Z" fill="white"/>
<path d="M195.931 295.836L194.701 302.148C194.628 302.497 194.597 302.742 194.597 302.877C194.597 303.669 194.868 304.294 195.41 304.752C195.951 305.211 196.665 305.44 197.556 305.44H199.222L197.972 311.752H195.201C192.67 311.752 190.707 311.122 189.306 309.857C187.915 308.596 187.222 306.893 187.222 304.752C187.222 304.185 187.29 303.518 187.431 302.752L188.806 295.836H185.181L186.41 289.565H190.035L191.201 283.669H198.326L197.16 289.565H202.285L201.056 295.836H195.931Z" fill="white"/>
<path d="M214.402 289.003C216.527 289.003 218.413 289.471 220.069 290.398C221.72 291.331 222.996 292.596 223.902 294.19C224.819 295.773 225.277 297.518 225.277 299.419C225.277 300.586 225.121 301.7 224.819 302.753H208.298C208.465 304.117 208.944 305.164 209.736 305.898C210.538 306.622 211.595 306.982 212.902 306.982C213.902 306.982 214.783 306.768 215.548 306.336C216.309 305.909 216.866 305.378 217.215 304.753H224.215C223.298 306.919 221.803 308.726 219.736 310.169C217.678 311.601 215.236 312.315 212.402 312.315C210.319 312.315 208.444 311.878 206.777 311.003C205.121 310.117 203.819 308.878 202.861 307.294C201.902 305.711 201.423 303.93 201.423 301.94C201.423 299.69 201.975 297.581 203.09 295.607C204.199 293.622 205.741 292.023 207.715 290.815C209.699 289.607 211.928 289.003 214.402 289.003ZM214.152 294.378C212.887 294.378 211.803 294.742 210.902 295.461C210.012 296.169 209.345 297.122 208.902 298.315H218.632C218.533 297.148 218.1 296.206 217.34 295.482C216.574 294.747 215.512 294.378 214.152 294.378Z" fill="white"/>
<path d="M241.868 289.003C243.435 289.003 244.847 289.346 246.097 290.023C247.347 290.69 248.326 291.643 249.034 292.878C249.743 294.117 250.097 295.575 250.097 297.253C250.097 298.128 250.024 298.909 249.889 299.586L247.555 311.753H240.43L242.68 300.023C242.764 299.596 242.805 299.19 242.805 298.815C242.805 297.773 242.493 296.94 241.868 296.315C241.243 295.69 240.399 295.378 239.347 295.378C238.149 295.378 237.17 295.747 236.409 296.482C235.644 297.221 235.144 298.226 234.909 299.503L232.534 311.753H225.409L229.701 289.565H236.284L235.93 291.315C237.873 289.773 239.852 289.003 241.868 289.003Z" fill="white"/>
<path d="M279.537 289.003C281.272 289.003 282.871 289.461 284.329 290.378C285.798 291.284 286.964 292.523 287.829 294.107C288.704 295.69 289.142 297.435 289.142 299.336C289.142 301.643 288.589 303.794 287.496 305.794C286.397 307.784 284.897 309.367 282.996 310.544C281.089 311.726 278.985 312.315 276.683 312.315C273.751 312.315 271.501 311.409 269.933 309.586L267.808 320.586H260.725L266.683 289.565H273.267L272.912 291.482C274.621 289.831 276.829 289.003 279.537 289.003ZM276.162 306.003C277.355 306.003 278.397 305.721 279.287 305.148C280.188 304.581 280.876 303.825 281.35 302.878C281.819 301.935 282.058 300.956 282.058 299.94C282.058 298.664 281.6 297.581 280.683 296.69C279.777 295.789 278.61 295.336 277.183 295.336C275.985 295.336 274.944 295.628 274.058 296.211C273.183 296.784 272.506 297.534 272.037 298.461C271.579 299.393 271.35 300.367 271.35 301.378C271.35 302.659 271.798 303.747 272.704 304.648C273.621 305.555 274.772 306.003 276.162 306.003Z" fill="white"/>
<path d="M301.077 312.315C299.119 312.315 297.275 311.883 295.556 311.023C293.832 310.148 292.452 308.914 291.41 307.315C290.369 305.721 289.848 303.914 289.848 301.898C289.848 299.565 290.421 297.414 291.577 295.44C292.728 293.456 294.327 291.888 296.369 290.732C298.421 289.581 300.728 289.003 303.285 289.003C305.311 289.003 307.186 289.45 308.91 290.336C310.629 291.211 311.999 292.45 313.015 294.044C314.041 295.643 314.556 297.45 314.556 299.461C314.556 301.825 313.973 303.992 312.806 305.961C311.64 307.919 310.025 309.471 307.973 310.607C305.931 311.747 303.629 312.315 301.077 312.315ZM301.723 305.94C302.916 305.94 303.942 305.664 304.806 305.107C305.681 304.539 306.348 303.789 306.806 302.857C307.275 301.93 307.515 300.971 307.515 299.982C307.515 298.706 307.061 297.622 306.16 296.732C305.27 295.831 304.119 295.378 302.702 295.378C301.535 295.378 300.504 295.664 299.619 296.232C298.744 296.789 298.077 297.534 297.619 298.461C297.16 299.393 296.931 300.367 296.931 301.378C296.931 302.659 297.374 303.742 298.265 304.628C299.166 305.503 300.317 305.94 301.723 305.94Z" fill="white"/>
<path d="M326.456 295.836L325.227 302.148C325.154 302.497 325.123 302.742 325.123 302.877C325.123 303.669 325.394 304.294 325.935 304.752C326.477 305.211 327.19 305.44 328.081 305.44H329.748L328.498 311.752H325.727C323.196 311.752 321.232 311.122 319.831 309.857C318.44 308.596 317.748 306.893 317.748 304.752C317.748 304.185 317.815 303.518 317.956 302.752L319.331 295.836H315.706L316.935 289.565H320.56L321.727 283.669H328.852L327.685 289.565H332.81L331.581 295.836H326.456Z" fill="white"/>
<path d="M352.136 289.565H358.74L354.49 311.753H347.949L348.344 309.753C346.636 311.461 344.397 312.315 341.636 312.315C339.897 312.315 338.292 311.862 336.824 310.961C335.365 310.044 334.199 308.794 333.324 307.211C332.459 305.628 332.032 303.888 332.032 301.982C332.032 299.68 332.579 297.534 333.678 295.544C334.772 293.544 336.272 291.956 338.178 290.773C340.094 289.596 342.199 289.003 344.49 289.003C346.199 289.003 347.641 289.305 348.824 289.898C350.001 290.497 350.933 291.268 351.615 292.211L352.136 289.565ZM343.99 306.003C345.183 306.003 346.219 305.711 347.094 305.128C347.98 304.544 348.657 303.789 349.115 302.857C349.584 301.93 349.824 300.956 349.824 299.94C349.824 298.664 349.365 297.581 348.449 296.69C347.542 295.789 346.386 295.336 344.969 295.336C343.803 295.336 342.766 295.622 341.865 296.19C340.975 296.747 340.292 297.497 339.824 298.44C339.35 299.388 339.115 300.367 339.115 301.378C339.115 302.659 339.563 303.747 340.469 304.648C341.386 305.555 342.558 306.003 343.99 306.003Z" fill="white"/>
<path d="M370.05 295.836L368.821 302.148C368.748 302.497 368.716 302.742 368.716 302.877C368.716 303.669 368.987 304.294 369.529 304.752C370.071 305.211 370.784 305.44 371.675 305.44H373.341L372.091 311.752H369.321C366.789 311.752 364.826 311.122 363.425 309.857C362.034 308.596 361.341 306.893 361.341 304.752C361.341 304.185 361.409 303.518 361.55 302.752L362.925 295.836H359.3L360.529 289.565H364.154L365.321 283.669H372.446L371.279 289.565H376.404L375.175 295.836H370.05Z" fill="white"/>
<path d="M386.772 312.315C384.813 312.315 382.97 311.883 381.251 311.023C379.527 310.148 378.147 308.914 377.105 307.315C376.063 305.721 375.542 303.914 375.542 301.898C375.542 299.565 376.115 297.414 377.272 295.44C378.423 293.456 380.022 291.888 382.063 290.732C384.115 289.581 386.423 289.003 388.98 289.003C391.006 289.003 392.881 289.45 394.605 290.336C396.324 291.211 397.694 292.45 398.709 294.044C399.735 295.643 400.251 297.45 400.251 299.461C400.251 301.825 399.667 303.992 398.501 305.961C397.334 307.919 395.72 309.471 393.667 310.607C391.626 311.747 389.324 312.315 386.772 312.315ZM387.417 305.94C388.61 305.94 389.636 305.664 390.501 305.107C391.376 304.539 392.042 303.789 392.501 302.857C392.97 301.93 393.209 300.971 393.209 299.982C393.209 298.706 392.756 297.622 391.855 296.732C390.964 295.831 389.813 295.378 388.397 295.378C387.23 295.378 386.199 295.664 385.313 296.232C384.438 296.789 383.772 297.534 383.313 298.461C382.855 299.393 382.626 300.367 382.626 301.378C382.626 302.659 383.069 303.742 383.959 304.628C384.86 305.503 386.011 305.94 387.417 305.94Z" fill="white"/>
<path d="M192.86 358.371C192.037 358.371 191.267 358.272 190.548 358.079C189.839 357.871 189.235 357.527 188.735 357.037C188.235 356.537 187.985 355.933 187.985 355.225H190.86C190.86 356.142 191.532 356.6 192.881 356.6C193.673 356.6 194.22 356.511 194.527 356.329C194.829 356.152 194.985 355.824 194.985 355.35C194.985 355.24 194.964 355.136 194.923 355.037C194.881 354.944 194.787 354.85 194.652 354.767C194.527 354.683 194.412 354.621 194.319 354.579C194.22 354.527 194.058 354.47 193.839 354.412C193.615 354.36 193.444 354.319 193.319 354.287C193.204 354.261 193.017 354.22 192.756 354.162C192.6 354.136 192.485 354.115 192.402 354.1C191.845 353.99 191.407 353.902 191.089 353.829C190.767 353.761 190.381 353.636 189.923 353.454C189.464 353.277 189.11 353.089 188.86 352.891C188.621 352.683 188.407 352.407 188.214 352.058C188.032 351.714 187.944 351.319 187.944 350.871C187.944 349.97 188.261 349.261 188.902 348.746C189.662 348.162 190.845 347.871 192.444 347.871C193.277 347.871 194.032 347.975 194.714 348.183C195.392 348.391 195.97 348.746 196.444 349.246C196.912 349.735 197.152 350.329 197.152 351.037H194.277C194.277 350.537 194.121 350.183 193.819 349.975C193.527 349.756 193.074 349.641 192.464 349.641C191.767 349.641 191.24 349.74 190.881 349.933C190.532 350.131 190.36 350.402 190.36 350.746C190.36 350.944 190.428 351.115 190.569 351.266C190.704 351.423 190.907 351.548 191.173 351.641C191.449 351.74 191.714 351.824 191.964 351.891C192.214 351.964 192.537 352.037 192.944 352.121C192.996 352.121 193.032 352.131 193.048 352.141C193.074 352.141 193.11 352.152 193.152 352.162C193.204 352.162 193.246 352.173 193.277 352.183C193.829 352.298 194.324 352.423 194.756 352.558C195.183 352.699 195.615 352.881 196.048 353.1C196.475 353.324 196.808 353.61 197.048 353.954C197.298 354.303 197.423 354.704 197.423 355.162C197.423 356.194 197.089 356.954 196.423 357.454C195.673 358.069 194.485 358.371 192.86 358.371Z" fill="white"/>
<path d="M202.913 358.267V348.058H205.268V358.267H202.913Z" fill="white"/>
<path d="M211.016 358.267V348.058H213.85L218.37 355.475V348.058H220.725V358.267H217.516L213.37 351.475V358.267H211.016Z" fill="white"/>
<path d="M231.399 358.371C229.607 358.371 228.232 357.798 227.274 356.642C226.493 355.699 226.107 354.537 226.107 353.162V353.079C226.107 351.694 226.493 350.527 227.274 349.579C228.217 348.444 229.592 347.871 231.399 347.871C232.758 347.871 233.883 348.178 234.774 348.787C235.659 349.402 236.191 350.22 236.357 351.246H233.92C233.863 350.72 233.607 350.324 233.149 350.058C232.701 349.782 232.118 349.641 231.399 349.641C230.493 349.641 229.779 349.97 229.253 350.621C228.722 351.261 228.461 352.11 228.461 353.162C228.461 354.194 228.722 355.027 229.253 355.662C229.795 356.287 230.508 356.6 231.399 356.6C232.118 356.6 232.701 356.47 233.149 356.204C233.607 355.928 233.863 355.527 233.92 354.996H236.357C236.191 356.011 235.654 356.829 234.753 357.454C233.863 358.069 232.743 358.371 231.399 358.371Z" fill="white"/>
<path d="M241.75 358.267V348.058H249.25V349.85H244.104V352.329H248.104V354.121H244.104V356.496H249.25V358.267H241.75Z" fill="white"/>
<path d="M261.926 358.267V356.329C261.926 356.11 261.973 355.907 262.072 355.725C262.166 355.548 262.364 355.339 262.656 355.1C262.958 354.865 263.223 354.678 263.447 354.537C263.666 354.402 264.057 354.157 264.614 353.808C265.598 353.183 266.343 352.678 266.843 352.287C267.354 351.886 267.614 351.449 267.614 350.975C267.614 350.475 267.458 350.131 267.156 349.933C266.864 349.74 266.432 349.641 265.864 349.641C265.223 349.641 264.77 349.74 264.51 349.933C264.26 350.115 264.119 350.464 264.093 350.975H261.718C261.718 349.949 262.083 349.178 262.822 348.662C263.572 348.136 264.551 347.871 265.76 347.871C267.26 347.871 268.333 348.115 268.989 348.6C269.64 349.089 269.968 349.86 269.968 350.912C269.968 351.886 269.51 352.782 268.593 353.6C267.979 354.142 266.531 355.11 264.239 356.496H269.968V358.267H261.926Z" fill="white"/>
<path d="M280.093 358.371C278.327 358.371 277.009 357.782 276.134 356.6C275.436 355.683 275.093 354.574 275.093 353.266C275.093 351.865 275.436 350.678 276.134 349.704C277.009 348.485 278.327 347.871 280.093 347.871C281.853 347.871 283.181 348.485 284.072 349.704C284.749 350.678 285.093 351.865 285.093 353.266C285.093 354.574 284.749 355.683 284.072 356.6C283.181 357.782 281.853 358.371 280.093 358.371ZM280.093 356.6C280.994 356.6 281.66 356.303 282.093 355.704C282.52 355.11 282.738 354.298 282.738 353.266C282.738 352.157 282.52 351.277 282.093 350.621C281.66 349.97 280.994 349.641 280.093 349.641C279.202 349.641 278.535 349.97 278.093 350.621C277.66 351.277 277.447 352.157 277.447 353.266C277.447 354.282 277.666 355.095 278.113 355.704C278.556 356.303 279.218 356.6 280.093 356.6Z" fill="white"/>
<path d="M290.429 358.267V356.329C290.429 356.11 290.476 355.907 290.575 355.725C290.668 355.548 290.866 355.339 291.158 355.1C291.46 354.865 291.726 354.678 291.95 354.537C292.168 354.402 292.559 354.157 293.116 353.808C294.101 353.183 294.845 352.678 295.345 352.287C295.856 351.886 296.116 351.449 296.116 350.975C296.116 350.475 295.96 350.131 295.658 349.933C295.366 349.74 294.934 349.641 294.366 349.641C293.726 349.641 293.272 349.74 293.012 349.933C292.762 350.115 292.621 350.464 292.595 350.975H290.22C290.22 349.949 290.585 349.178 291.325 348.662C292.075 348.136 293.054 347.871 294.262 347.871C295.762 347.871 296.835 348.115 297.491 348.6C298.142 349.089 298.47 349.86 298.47 350.912C298.47 351.886 298.012 352.782 297.095 353.6C296.481 354.142 295.033 355.11 292.741 356.496H298.47V358.267H290.429Z" fill="white"/>
<path d="M307.595 358.371C306.413 358.371 305.439 358.142 304.678 357.683C303.913 357.214 303.532 356.517 303.532 355.6H305.928C305.928 355.99 306.079 356.256 306.387 356.392C306.689 356.532 307.126 356.6 307.699 356.6C309.074 356.6 309.762 356.214 309.762 355.433C309.762 354.85 309.595 354.475 309.262 354.308C308.939 354.131 308.449 354.037 307.782 354.037H306.866V352.266H308.116C308.616 352.266 309.012 352.152 309.303 351.912C309.605 351.678 309.762 351.339 309.762 350.891C309.762 350.407 309.574 350.079 309.199 349.912C308.835 349.735 308.335 349.641 307.699 349.641C306.501 349.641 305.907 349.996 305.907 350.704H303.512C303.512 349.777 303.892 349.074 304.657 348.6C305.433 348.115 306.428 347.871 307.637 347.871C309.272 347.871 310.449 348.121 311.157 348.621C311.793 349.079 312.116 349.798 312.116 350.766C312.116 351.298 312.001 351.756 311.782 352.141C311.558 352.516 311.126 352.871 310.491 353.204C311.574 353.553 312.116 354.324 312.116 355.517C312.116 356.475 311.788 357.183 311.137 357.642C310.439 358.131 309.262 358.371 307.595 358.371Z" fill="white"/>
<path d="M287.833 175.396C280.552 175.396 274.667 169.484 274.667 162.161C274.667 154.844 280.552 148.932 287.833 148.932C295.12 148.932 301 154.87 301 162.161C301 169.458 295.089 175.396 287.833 175.396Z" fill="black"/>
<mask id="mask0_550_239" style="mask-type:luminance" maskUnits="userSpaceOnUse" x="218" y="138" width="44" height="42">
<path d="M218.667 138.031H261.333V180H218.667V138.031Z" fill="white"/>
</mask>
<g mask="url(#mask0_550_239)">
<path d="M261.099 158.99C261.099 170.568 251.766 179.927 240.271 179.927C228.755 179.927 219.417 170.542 219.417 158.99C219.391 147.411 228.724 138.031 240.245 138.031C251.766 138.031 261.099 147.411 261.099 158.99Z" fill="black"/>
</g>
<mask id="mask1_550_239" style="mask-type:luminance" maskUnits="userSpaceOnUse" x="182" y="176" width="28" height="63">
<path d="M182.714 176H209.333V238.667H182.714V176Z" fill="white"/>
</mask>
<g mask="url(#mask1_550_239)">
<path d="M196.083 176.047H196.193L196.271 176.073L196.38 176.104L196.432 176.13L196.516 176.156L196.594 176.182L196.677 176.208L196.755 176.24L196.839 176.266L196.948 176.292L197 176.318L197.109 176.344L197.161 176.375L197.271 176.401L197.323 176.427L197.349 176.453L197.484 176.51L197.62 176.563H197.677L197.839 176.615L198.161 176.781H198.188C198.349 176.859 198.51 176.943 198.672 177.052L198.781 177.104L198.807 177.13L198.891 177.188L198.969 177.24L199.026 177.266L199.13 177.349L199.188 177.375L199.292 177.458L199.349 177.484C199.427 177.568 199.536 177.646 199.62 177.703L199.646 177.729L199.781 177.839L199.807 177.865C200.104 178.135 200.401 178.406 200.698 178.734C202.26 180.443 203.693 182.906 204.823 185.943L204.906 186.135L204.932 186.188L204.958 186.219L205.12 186.677L205.146 186.729L205.177 186.76C205.229 186.922 205.281 187.083 205.365 187.276V187.328L205.526 187.844L205.552 187.896L205.578 187.953L205.74 188.438L205.766 188.521L205.901 188.953L205.932 189.063L205.958 189.146L206.094 189.604L206.146 189.74L206.281 190.229L206.307 190.339L206.443 190.88V190.932L206.469 191.016L206.578 191.531V191.583L206.604 191.641L206.74 192.208V192.266L206.875 192.859V192.943L206.984 193.536V193.568L207.089 194.161L207.115 194.245V194.271L207.224 194.813L207.25 194.922V194.974L207.359 195.599V195.625L207.443 196.224L207.469 196.359L207.547 196.953V197.01L207.578 197.12L207.63 197.604L207.656 197.797L207.74 198.365V198.5L207.792 199.099V199.26L207.875 199.911V199.964L207.927 200.641V200.724L207.979 201.349V201.536L208.005 202.052V202.271L208.036 202.922V203L208.063 203.651V203.896L208.089 204.469V204.63L208.115 205.224V208.536L208.089 209.13V209.292L208.063 209.865V210.104L208.036 210.755V210.839L208.005 211.49V211.708L207.979 212.25V212.438L207.927 213.063V213.146L207.875 213.823V213.875L207.792 214.552V214.661L207.708 215.286V215.396L207.63 215.964L207.604 216.047L207.578 216.156L207.521 216.641L207.495 216.75V216.802L207.411 217.401L207.385 217.536L207.307 218.161L207.198 218.813L207.172 218.891L207.063 219.542V219.573L206.953 220.224V220.302L206.823 220.927V220.953L206.688 221.578V221.604C206.63 221.823 206.578 222.036 206.526 222.255V222.281L206.359 222.906V222.932L206.198 223.505L206.172 223.583L206.036 224.125L206.01 224.208L205.849 224.75L205.823 224.776L205.797 224.885L205.661 225.318L205.635 225.401L205.474 225.917L205.443 225.943L205.417 226C205.365 226.188 205.307 226.349 205.255 226.51V226.542L205.068 227.026L205.042 227.057L205.01 227.109L204.849 227.568L204.823 227.599V227.625L204.745 227.844C203.365 231.448 201.641 234.24 199.698 235.922C199.453 236.141 199.188 236.354 198.917 236.521L198.755 236.625L198.594 236.734L198.271 236.901L198.104 236.979L197.943 237.063L197.781 237.141L197.62 237.224L197.458 237.276L197.297 237.333L197.135 237.385L196.974 237.443L196.651 237.547L196.49 237.578L196.167 237.63L196 237.656L195.839 237.688H195.49C195.38 237.688 195.276 237.688 195.167 237.656H195.057C195.005 237.656 194.922 237.63 194.87 237.63L194.76 237.604C194.682 237.578 194.625 237.578 194.547 237.578L194.438 237.547C194.354 237.521 194.302 237.521 194.224 237.495L194.115 237.469C194.063 237.443 193.979 237.443 193.896 237.411L193.792 237.385C193.734 237.359 193.656 237.333 193.599 237.333L193.469 237.276L193.302 237.224L193.141 237.141L192.979 237.063L192.818 236.979L192.656 236.901L192.521 236.818L192.333 236.708L192.224 236.625L192.063 236.521L191.901 236.411L191.766 236.302L191.443 236.083L191.307 235.974L191.172 235.87L190.849 235.599L190.714 235.49L190.417 235.193L190.281 235.026L190.146 234.865L190.016 234.703L189.88 234.542L189.719 234.349L189.609 234.188L189.448 233.995L189.339 233.833L189.203 233.646L189.094 233.479L188.932 233.266L188.828 233.13L188.667 232.885L188.557 232.724L188.422 232.505L188.313 232.344L188.177 232.099L188.073 231.911L187.911 231.635L187.828 231.5L187.667 231.203L187.583 231.042L187.422 230.745L187.344 230.609L187.151 230.203L187.125 230.146C187.047 229.984 186.99 229.849 186.911 229.688L186.885 229.656L186.724 229.276L186.667 229.172V229.141L186.453 228.656C186.37 228.49 186.318 228.302 186.234 228.141V228.115L186.047 227.599L186.021 227.568L185.833 227.057L185.807 227L185.641 226.51L185.615 226.484L185.536 226.188L185.453 225.917L185.375 225.672L185.266 225.318L185.214 225.104L185.104 224.724L185.047 224.505L184.943 224.125L184.885 223.938L184.781 223.474L184.724 223.26L184.62 222.88L184.536 222.578L184.458 222.255L184.401 221.984L184.323 221.578L184.266 221.359L184.188 220.953L184.13 220.63L184.052 220.276L183.995 219.948L183.943 219.625L183.891 219.271L183.833 218.922L183.781 218.651L183.698 218.214L183.646 217.917L183.594 217.589L183.536 217.182L183.484 216.833L183.432 216.531L183.375 216.125L183.323 215.802L183.297 215.474L183.24 215.068L183.214 214.771L183.161 214.391L183.135 214.01L183.109 213.661L183.078 213.25L183.052 212.927L183.026 212.547L183 212.193L182.974 211.813L182.943 211.406L182.917 211.109L182.891 210.677L182.865 210.38L182.839 209.891V209.865L182.813 209.182V209.104L182.781 208.396V208.344C182.781 207.828 182.755 207.339 182.755 206.823C182.755 189.823 188.422 176.047 195.438 176.047C195.677 175.995 195.87 176.021 196.083 176.047Z" fill="black"/>
</g>
<mask id="mask2_550_239" style="mask-type:luminance" maskUnits="userSpaceOnUse" x="182" y="168" width="136" height="101">
<path d="M182.714 168H317.297V268.031H182.714V168Z" fill="white"/>
</mask>
<g mask="url(#mask2_550_239)">
<path d="M304.531 168.62C311.844 169.104 317.672 175.26 317.672 182.719V235.651C317.672 243.432 311.359 249.781 303.615 249.781H247.016C245.396 249.781 244.078 251.109 244.078 252.734V268.031L224.083 250.62C223.438 250.078 222.74 249.807 221.901 249.807H218.609C211.703 249.807 205.901 244.708 204.745 238.094V237.714C202.479 241.563 199.724 243.839 196.729 243.839C189.016 243.839 182.781 228.656 182.781 209.943C182.781 209.62 182.781 209.292 182.781 208.969C183 226.188 188.797 239.964 195.922 239.964C199.292 239.964 202.396 236.87 204.714 231.745C207.386 225.891 209.089 217.427 209.089 207.99C209.089 198.557 207.412 190.094 204.714 184.234C202.505 177.458 198.349 174.771 193.224 175.641C197.62 174.286 202.208 176.13 204.714 180.359C205.688 174.667 210.109 170.083 215.724 168.917C219.636 178.651 229.104 185.536 240.219 185.536C251.417 185.536 260.99 178.516 264.823 168.62H271.083C273.646 175.37 280.172 180.167 287.807 180.167C295.443 180.141 301.943 175.37 304.531 168.62ZM218.151 183.234C215.964 183.234 214.188 185.021 214.188 187.219C214.188 189.417 215.964 191.208 218.151 191.208C220.339 191.208 222.115 189.417 222.115 187.219C222.115 185.021 220.339 183.234 218.151 183.234ZM276.557 211.599L262.828 203.625L249.094 195.651C248.042 195.031 246.802 195.031 245.75 195.651C244.698 196.276 244.078 197.333 244.078 198.583V230.417C244.078 231.667 244.698 232.724 245.75 233.344C246.828 233.969 248.042 233.969 249.094 233.344L262.828 225.375L276.557 217.401C277.636 216.776 278.229 215.719 278.229 214.474C278.229 213.224 277.636 212.224 276.557 211.599Z" fill="black"/>
</g>
<mask id="mask3_550_239" style="mask-type:luminance" maskUnits="userSpaceOnUse" x="273" y="132" width="37" height="42">
<path d="M273.911 132.714H309.911V173.714H273.911V132.714Z" fill="white"/>
</mask>
<g mask="url(#mask3_550_239)">
<path d="M280.365 151.057C281.463 149.651 282.463 148.167 283.25 146.573C284.703 143.641 285.437 140.333 287.391 137.703C289.406 134.99 292.656 133.224 296.052 132.969C299.443 132.713 302.911 133.958 305.38 136.276C308.323 139.031 309.75 143.13 309.807 147.146C309.885 152.38 307.818 157.463 304.901 161.833C301.542 166.859 296.802 171.25 290.948 172.891C288.828 173.49 286.588 173.713 284.401 173.422C282.219 173.135 280.088 172.323 278.344 170.984C276.745 169.76 275.484 168.099 274.776 166.219C274.068 164.338 273.922 162.255 274.401 160.307C274.838 158.51 275.786 156.875 276.88 155.385C277.974 153.891 279.224 152.516 280.365 151.057Z" fill="black"/>
</g>
<mask id="mask4_550_239" style="mask-type:luminance" maskUnits="userSpaceOnUse" x="273" y="134" width="37" height="40">
<path d="M273.911 134.667H309.911V173.714H273.911V134.667Z" fill="white"/>
</mask>
<g mask="url(#mask4_550_239)">
<path d="M303.995 135.177C305.682 139.656 306.052 144.62 304.963 149.281C304.135 152.812 302.474 156.198 299.906 158.781C297.338 161.359 293.828 163.089 290.172 163.203C286.724 163.312 283.25 161.948 280.807 159.531C279.365 158.094 278.302 156.297 277.687 154.365C277.422 154.703 277.135 155.031 276.88 155.385C275.786 156.875 274.838 158.51 274.401 160.302C273.922 162.25 274.068 164.344 274.776 166.219C275.479 168.099 276.745 169.76 278.349 170.984C280.088 172.323 282.219 173.13 284.406 173.422C286.588 173.708 288.828 173.49 290.953 172.891C296.802 171.245 301.542 166.859 304.901 161.833C307.818 157.464 309.885 152.38 309.807 147.146C309.75 143.135 308.323 139.031 305.38 136.271C304.953 135.87 304.484 135.51 303.995 135.177Z" fill="black"/>
</g>
<path d="M301.901 149.865C302.078 149.724 302.323 149.677 302.537 149.745C302.75 149.807 302.927 149.979 303 150.193C303.037 150.307 303.042 150.432 303.016 150.552C302.99 150.667 302.932 150.781 302.849 150.87C302.766 150.958 302.656 151.026 302.542 151.063C302.427 151.099 302.302 151.104 302.182 151.078C302.052 151.047 301.932 150.984 301.844 150.896C301.75 150.802 301.682 150.688 301.656 150.557C301.625 150.432 301.636 150.297 301.677 150.177C301.719 150.057 301.797 149.948 301.901 149.865Z" fill="black"/>
<path d="M278.906 160.266C278.995 160.094 279.13 159.943 279.292 159.844C279.458 159.745 279.656 159.693 279.849 159.698C280.042 159.698 280.234 159.76 280.396 159.87C280.557 159.974 280.682 160.13 280.76 160.307C280.839 160.495 280.865 160.703 280.823 160.906C280.781 161.104 280.682 161.286 280.536 161.427C280.391 161.573 280.198 161.667 279.995 161.698C279.792 161.734 279.583 161.703 279.396 161.62C279.151 161.505 278.958 161.292 278.87 161.042C278.776 160.792 278.792 160.505 278.911 160.266H278.906Z" fill="black"/>
<path d="M297.479 137.63C297.646 137.5 297.88 137.453 298.089 137.516C298.292 137.578 298.464 137.745 298.526 137.948C298.563 138.057 298.568 138.177 298.542 138.286C298.516 138.401 298.464 138.51 298.386 138.594C298.307 138.677 298.203 138.745 298.094 138.776C297.979 138.812 297.86 138.818 297.745 138.792C297.625 138.766 297.511 138.703 297.422 138.615C297.333 138.531 297.271 138.417 297.245 138.297C297.219 138.177 297.224 138.047 297.266 137.932C297.307 137.812 297.38 137.708 297.479 137.63Z" fill="black"/>
<path d="M288.396 144.922C288.63 144.74 288.953 144.677 289.24 144.76C289.526 144.849 289.766 145.078 289.854 145.359C289.911 145.516 289.917 145.682 289.875 145.839C289.844 146 289.766 146.146 289.656 146.266C289.547 146.385 289.401 146.474 289.25 146.521C289.094 146.573 288.927 146.578 288.766 146.542C288.594 146.505 288.438 146.417 288.313 146.297C288.193 146.177 288.104 146.021 288.063 145.849C288.026 145.682 288.036 145.505 288.094 145.339C288.151 145.177 288.255 145.031 288.391 144.922H288.396Z" fill="black"/>
<path d="M288.109 168.172C288.365 167.974 288.713 167.906 289.021 168C289.328 168.094 289.583 168.344 289.682 168.646C289.74 168.812 289.745 168.99 289.708 169.161C289.672 169.328 289.588 169.49 289.474 169.615C289.354 169.745 289.203 169.839 289.036 169.891C288.87 169.948 288.687 169.953 288.516 169.917C288.333 169.875 288.161 169.786 288.031 169.656C287.896 169.526 287.802 169.354 287.76 169.172C287.719 168.995 287.729 168.802 287.792 168.625C287.854 168.453 287.969 168.297 288.115 168.177L288.109 168.172Z" fill="black"/>
<path d="M299.573 160.859C299.76 160.714 300.021 160.661 300.25 160.729C300.479 160.797 300.667 160.984 300.745 161.208C300.786 161.333 300.792 161.464 300.76 161.594C300.729 161.719 300.667 161.839 300.578 161.932C300.49 162.026 300.38 162.099 300.255 162.135C300.13 162.177 299.995 162.177 299.87 162.151C299.734 162.12 299.604 162.052 299.505 161.953C299.411 161.859 299.338 161.734 299.307 161.599C299.276 161.464 299.286 161.323 299.328 161.193C299.375 161.062 299.458 160.943 299.568 160.859H299.573Z" fill="black"/>
<path d="M290.422 156.51C290.568 156.396 290.771 156.359 290.953 156.411C291.13 156.464 291.276 156.609 291.333 156.786C291.37 156.88 291.375 156.984 291.349 157.083C291.328 157.182 291.281 157.276 291.214 157.349C291.146 157.422 291.057 157.479 290.958 157.51C290.859 157.542 290.755 157.547 290.656 157.526C290.552 157.5 290.453 157.448 290.375 157.37C290.297 157.297 290.245 157.198 290.219 157.094C290.193 156.99 290.203 156.875 290.234 156.776C290.271 156.672 290.339 156.583 290.422 156.516V156.51Z" fill="black"/>
<path d="M289.141 138.193C289.875 137.26 290.781 136.458 291.802 135.844C292.828 135.234 293.964 134.802 295.146 134.615C295.526 134.552 295.917 134.516 296.302 134.578C296.682 134.635 297.057 134.797 297.323 135.078C297.547 135.318 297.672 135.635 297.708 135.958C297.74 136.286 297.677 136.615 297.562 136.922C297.323 137.526 296.859 138.021 296.391 138.474C295.641 139.193 294.849 139.859 294.099 140.578C293.578 141.078 293.078 141.604 292.51 142.057C291.943 142.51 291.297 142.885 290.583 143.042C290.187 143.125 289.776 143.135 289.38 143.036C288.99 142.937 288.62 142.724 288.375 142.406C288.135 142.104 288.016 141.724 287.984 141.339C287.958 140.958 288.026 140.573 288.125 140.203C288.323 139.474 288.672 138.786 289.141 138.193Z" fill="black"/>
<mask id="mask5_550_239" style="mask-type:luminance" maskUnits="userSpaceOnUse" x="218" y="116" width="56" height="65">
<path d="M218.667 116.661H273.516V180.662H218.667V116.661Z" fill="white"/>
</mask>
<g mask="url(#mask5_550_239)">
<path d="M228.375 145.297C230.057 143.104 231.583 140.792 232.787 138.302C235.005 133.724 236.13 128.563 239.109 124.458C242.188 120.219 247.162 117.464 252.344 117.063C257.526 116.662 262.828 118.604 266.599 122.224C271.094 126.531 273.271 132.927 273.365 139.193C273.484 147.365 270.323 155.302 265.865 162.12C260.734 169.964 253.49 176.818 244.547 179.385C241.307 180.318 237.886 180.667 234.547 180.214C231.208 179.76 227.953 178.495 225.292 176.406C222.844 174.495 220.917 171.901 219.833 168.969C218.755 166.037 218.531 162.776 219.261 159.734C219.938 156.938 221.38 154.385 223.052 152.052C224.724 149.719 226.636 147.573 228.375 145.297Z" fill="black"/>
</g>
<mask id="mask6_550_239" style="mask-type:luminance" maskUnits="userSpaceOnUse" x="218" y="120" width="56" height="61">
<path d="M218.667 120H273.516V180.661H218.667V120Z" fill="white"/>
</mask>
<g mask="url(#mask6_550_239)">
<path d="M264.484 120.51C267.063 127.5 267.625 135.255 265.958 142.526C264.698 148.042 262.162 153.328 258.234 157.354C254.313 161.385 248.948 164.078 243.359 164.26C238.089 164.432 232.787 162.302 229.052 158.526C226.844 156.286 225.219 153.479 224.287 150.464C223.875 150.99 223.448 151.505 223.052 152.052C221.38 154.385 219.932 156.938 219.26 159.734C218.531 162.776 218.75 166.036 219.833 168.969C220.917 171.901 222.849 174.495 225.292 176.406C227.958 178.49 231.208 179.76 234.547 180.214C237.885 180.661 241.313 180.313 244.552 179.385C253.495 176.818 260.734 169.969 265.865 162.12C270.323 155.302 273.484 147.365 273.365 139.198C273.271 132.932 271.094 126.531 266.599 122.224C265.943 121.594 265.224 121.036 264.484 120.51Z" fill="black"/>
</g>
<path d="M261.281 143.438C261.552 143.219 261.927 143.146 262.255 143.25C262.583 143.349 262.854 143.62 262.958 143.953C263.016 144.13 263.026 144.323 262.984 144.51C262.943 144.693 262.854 144.87 262.729 145.005C262.604 145.146 262.437 145.255 262.26 145.307C262.083 145.365 261.891 145.375 261.708 145.333C261.516 145.281 261.333 145.188 261.193 145.047C261.052 144.901 260.953 144.719 260.906 144.521C260.859 144.323 260.875 144.115 260.937 143.927C261.005 143.734 261.125 143.563 261.281 143.438Z" fill="black"/>
<path d="M226.151 159.672C226.281 159.401 226.484 159.172 226.74 159.016C226.99 158.859 227.292 158.776 227.583 158.787C227.88 158.792 228.177 158.885 228.422 159.057C228.667 159.224 228.865 159.464 228.979 159.74C229.104 160.031 229.135 160.359 229.078 160.672C229.016 160.979 228.859 161.271 228.635 161.49C228.411 161.714 228.12 161.859 227.813 161.912C227.505 161.969 227.182 161.922 226.896 161.787C226.526 161.609 226.224 161.276 226.089 160.885C225.953 160.495 225.974 160.047 226.156 159.672H226.151Z" fill="black"/>
<path d="M254.526 124.344C254.781 124.135 255.141 124.068 255.453 124.161C255.766 124.26 256.026 124.521 256.125 124.833C256.182 125.005 256.193 125.193 256.151 125.37C256.109 125.547 256.026 125.714 255.906 125.844C255.786 125.979 255.63 126.078 255.463 126.13C255.292 126.188 255.109 126.198 254.932 126.156C254.75 126.115 254.573 126.016 254.437 125.88C254.307 125.745 254.208 125.568 254.167 125.38C254.125 125.193 254.135 124.995 254.198 124.813C254.266 124.63 254.375 124.464 254.526 124.344Z" fill="black"/>
<path d="M240.646 135.724C241 135.437 241.5 135.339 241.937 135.474C242.375 135.609 242.739 135.969 242.88 136.411C242.958 136.651 242.969 136.911 242.911 137.156C242.864 137.401 242.739 137.635 242.573 137.818C242.406 138.005 242.187 138.146 241.948 138.219C241.713 138.302 241.453 138.307 241.213 138.255C240.953 138.193 240.708 138.057 240.521 137.87C240.333 137.677 240.198 137.437 240.141 137.172C240.083 136.911 240.099 136.63 240.182 136.375C240.271 136.125 240.427 135.896 240.635 135.729L240.646 135.724Z" fill="black"/>
<path d="M240.214 172.021C240.599 171.708 241.135 171.604 241.604 171.75C242.073 171.891 242.464 172.281 242.615 172.755C242.698 173.01 242.708 173.292 242.656 173.557C242.599 173.823 242.474 174.073 242.292 174.271C242.109 174.469 241.875 174.62 241.62 174.703C241.37 174.786 241.089 174.797 240.828 174.745C240.552 174.677 240.292 174.536 240.089 174.328C239.885 174.125 239.74 173.865 239.677 173.578C239.615 173.297 239.63 173 239.724 172.724C239.818 172.453 239.995 172.208 240.214 172.026V172.021Z" fill="black"/>
<path d="M257.724 160.599C258.01 160.37 258.411 160.292 258.76 160.401C259.109 160.505 259.401 160.797 259.51 161.146C259.578 161.339 259.583 161.547 259.536 161.745C259.495 161.943 259.396 162.125 259.266 162.276C259.13 162.422 258.953 162.537 258.766 162.594C258.578 162.662 258.37 162.662 258.177 162.62C257.969 162.568 257.776 162.464 257.625 162.313C257.474 162.162 257.37 161.964 257.318 161.755C257.271 161.547 257.286 161.323 257.354 161.12C257.427 160.917 257.552 160.734 257.719 160.599H257.724Z" fill="black"/>
<path d="M243.745 153.812C243.964 153.635 244.276 153.573 244.552 153.656C244.823 153.74 245.052 153.964 245.141 154.24C245.187 154.391 245.193 154.552 245.161 154.708C245.13 154.859 245.057 155.005 244.948 155.12C244.844 155.24 244.708 155.323 244.562 155.37C244.417 155.422 244.255 155.432 244.104 155.396C243.943 155.354 243.792 155.276 243.672 155.156C243.552 155.036 243.469 154.885 243.432 154.724C243.396 154.557 243.411 154.385 243.458 154.224C243.516 154.068 243.615 153.922 243.745 153.818V153.812Z" fill="black"/>
<path d="M241.781 125.219C242.906 123.766 244.292 122.516 245.854 121.557C247.417 120.599 249.156 119.927 250.958 119.63C251.542 119.536 252.141 119.479 252.724 119.573C253.312 119.667 253.885 119.917 254.286 120.359C254.625 120.734 254.823 121.229 254.87 121.734C254.922 122.24 254.833 122.755 254.651 123.234C254.286 124.182 253.578 124.948 252.859 125.656C251.719 126.781 250.505 127.818 249.359 128.937C248.562 129.724 247.797 130.547 246.932 131.25C246.062 131.958 245.078 132.547 243.99 132.786C243.385 132.917 242.75 132.932 242.151 132.781C241.552 132.625 240.995 132.292 240.615 131.797C240.25 131.323 240.062 130.729 240.021 130.13C239.979 129.536 240.078 128.937 240.229 128.359C240.536 127.224 241.068 126.151 241.781 125.224V125.219Z" fill="black"/>
</svg>
