<svg width="500" height="500" viewBox="0 0 500 500" fill="none" xmlns="http://www.w3.org/2000/svg">
<rect width="500" height="500" fill="#F8B319"/>
<path d="M142.07 291.065C142.07 292.997 141.45 294.857 140.216 296.648C138.992 298.44 137.117 299.784 134.591 300.669L141.424 311.753H132.882L126.653 301.607H124.862L122.903 311.753H115.403L121.112 281.878H131.341C133.45 281.878 135.32 282.263 136.945 283.023C138.57 283.773 139.825 284.846 140.716 286.232C141.617 287.607 142.07 289.221 142.07 291.065ZM127.424 288.148L126.007 295.461H129.612C131.138 295.461 132.309 295.086 133.132 294.336C133.966 293.575 134.382 292.622 134.382 291.482C134.382 290.497 134.013 289.7 133.278 289.086C132.554 288.461 131.596 288.148 130.403 288.148H127.424Z" fill="white"/>
<path d="M153.788 312.315C151.83 312.315 149.986 311.883 148.267 311.023C146.543 310.148 145.163 308.914 144.121 307.315C143.08 305.721 142.559 303.914 142.559 301.898C142.559 299.565 143.132 297.414 144.288 295.44C145.439 293.456 147.038 291.888 149.08 290.732C151.132 289.581 153.439 289.003 155.996 289.003C158.022 289.003 159.897 289.45 161.621 290.336C163.34 291.211 164.71 292.45 165.726 294.044C166.752 295.643 167.267 297.45 167.267 299.461C167.267 301.825 166.684 303.992 165.517 305.961C164.351 307.919 162.736 309.471 160.684 310.607C158.642 311.747 156.34 312.315 153.788 312.315ZM154.434 305.94C155.627 305.94 156.653 305.664 157.517 305.107C158.392 304.539 159.059 303.789 159.517 302.857C159.986 301.93 160.226 300.971 160.226 299.982C160.226 298.706 159.772 297.622 158.871 296.732C157.981 295.831 156.83 295.378 155.413 295.378C154.246 295.378 153.215 295.664 152.33 296.232C151.455 296.789 150.788 297.534 150.33 298.461C149.871 299.393 149.642 300.367 149.642 301.378C149.642 302.659 150.085 303.742 150.976 304.628C151.877 305.503 153.028 305.94 154.434 305.94Z" fill="white"/>
<path d="M179.167 295.836L177.938 302.148C177.865 302.497 177.834 302.742 177.834 302.877C177.834 303.669 178.105 304.294 178.646 304.752C179.188 305.211 179.901 305.44 180.792 305.44H182.459L181.209 311.752H178.438C175.907 311.752 173.943 311.122 172.542 309.857C171.151 308.596 170.459 306.893 170.459 304.752C170.459 304.185 170.526 303.518 170.667 302.752L172.042 295.836H168.417L169.646 289.565H173.271L174.438 283.669H181.563L180.396 289.565H185.521L184.292 295.836H179.167Z" fill="white"/>
<path d="M195.931 295.836L194.701 302.148C194.628 302.497 194.597 302.742 194.597 302.877C194.597 303.669 194.868 304.294 195.41 304.752C195.951 305.211 196.665 305.44 197.556 305.44H199.222L197.972 311.752H195.201C192.67 311.752 190.707 311.122 189.306 309.857C187.915 308.596 187.222 306.893 187.222 304.752C187.222 304.185 187.29 303.518 187.431 302.752L188.806 295.836H185.181L186.41 289.565H190.035L191.201 283.669H198.326L197.16 289.565H202.285L201.056 295.836H195.931Z" fill="white"/>
<path d="M214.402 289.003C216.527 289.003 218.413 289.471 220.069 290.398C221.72 291.331 222.996 292.596 223.902 294.19C224.819 295.773 225.277 297.518 225.277 299.419C225.277 300.586 225.121 301.7 224.819 302.753H208.298C208.465 304.117 208.944 305.164 209.736 305.898C210.538 306.622 211.595 306.982 212.902 306.982C213.902 306.982 214.783 306.768 215.548 306.336C216.309 305.909 216.866 305.378 217.215 304.753H224.215C223.298 306.919 221.803 308.726 219.736 310.169C217.678 311.601 215.236 312.315 212.402 312.315C210.319 312.315 208.444 311.878 206.777 311.003C205.121 310.117 203.819 308.878 202.861 307.294C201.902 305.711 201.423 303.93 201.423 301.94C201.423 299.69 201.975 297.581 203.09 295.607C204.199 293.622 205.741 292.023 207.715 290.815C209.699 289.607 211.928 289.003 214.402 289.003ZM214.152 294.378C212.887 294.378 211.803 294.742 210.902 295.461C210.012 296.169 209.345 297.122 208.902 298.315H218.632C218.533 297.148 218.1 296.206 217.34 295.482C216.574 294.747 215.512 294.378 214.152 294.378Z" fill="white"/>
<path d="M241.868 289.003C243.435 289.003 244.847 289.346 246.097 290.023C247.347 290.69 248.326 291.643 249.034 292.878C249.743 294.117 250.097 295.575 250.097 297.253C250.097 298.128 250.024 298.909 249.889 299.586L247.555 311.753H240.43L242.68 300.023C242.764 299.596 242.805 299.19 242.805 298.815C242.805 297.773 242.493 296.94 241.868 296.315C241.243 295.69 240.399 295.378 239.347 295.378C238.149 295.378 237.17 295.747 236.409 296.482C235.644 297.221 235.144 298.226 234.909 299.503L232.534 311.753H225.409L229.701 289.565H236.284L235.93 291.315C237.873 289.773 239.852 289.003 241.868 289.003Z" fill="white"/>
<path d="M279.537 289.003C281.272 289.003 282.871 289.461 284.329 290.378C285.798 291.284 286.964 292.523 287.829 294.107C288.704 295.69 289.142 297.435 289.142 299.336C289.142 301.643 288.589 303.794 287.496 305.794C286.397 307.784 284.897 309.367 282.996 310.544C281.089 311.726 278.985 312.315 276.683 312.315C273.751 312.315 271.501 311.409 269.933 309.586L267.808 320.586H260.725L266.683 289.565H273.267L272.912 291.482C274.621 289.831 276.829 289.003 279.537 289.003ZM276.162 306.003C277.355 306.003 278.397 305.721 279.287 305.148C280.188 304.581 280.876 303.825 281.35 302.878C281.819 301.935 282.058 300.956 282.058 299.94C282.058 298.664 281.6 297.581 280.683 296.69C279.777 295.789 278.61 295.336 277.183 295.336C275.985 295.336 274.944 295.628 274.058 296.211C273.183 296.784 272.506 297.534 272.037 298.461C271.579 299.393 271.35 300.367 271.35 301.378C271.35 302.659 271.798 303.747 272.704 304.648C273.621 305.555 274.772 306.003 276.162 306.003Z" fill="white"/>
<path d="M301.077 312.315C299.119 312.315 297.275 311.883 295.556 311.023C293.832 310.148 292.452 308.914 291.41 307.315C290.369 305.721 289.848 303.914 289.848 301.898C289.848 299.565 290.421 297.414 291.577 295.44C292.728 293.456 294.327 291.888 296.369 290.732C298.421 289.581 300.728 289.003 303.285 289.003C305.311 289.003 307.186 289.45 308.91 290.336C310.629 291.211 311.999 292.45 313.015 294.044C314.041 295.643 314.556 297.45 314.556 299.461C314.556 301.825 313.973 303.992 312.806 305.961C311.64 307.919 310.025 309.471 307.973 310.607C305.931 311.747 303.629 312.315 301.077 312.315ZM301.723 305.94C302.916 305.94 303.942 305.664 304.806 305.107C305.681 304.539 306.348 303.789 306.806 302.857C307.275 301.93 307.515 300.971 307.515 299.982C307.515 298.706 307.061 297.622 306.16 296.732C305.27 295.831 304.119 295.378 302.702 295.378C301.535 295.378 300.504 295.664 299.619 296.232C298.744 296.789 298.077 297.534 297.619 298.461C297.16 299.393 296.931 300.367 296.931 301.378C296.931 302.659 297.374 303.742 298.265 304.628C299.166 305.503 300.317 305.94 301.723 305.94Z" fill="white"/>
<path d="M326.456 295.836L325.227 302.148C325.154 302.497 325.123 302.742 325.123 302.877C325.123 303.669 325.394 304.294 325.935 304.752C326.477 305.211 327.19 305.44 328.081 305.44H329.748L328.498 311.752H325.727C323.196 311.752 321.232 311.122 319.831 309.857C318.44 308.596 317.748 306.893 317.748 304.752C317.748 304.185 317.815 303.518 317.956 302.752L319.331 295.836H315.706L316.935 289.565H320.56L321.727 283.669H328.852L327.685 289.565H332.81L331.581 295.836H326.456Z" fill="white"/>
<path d="M352.136 289.565H358.74L354.49 311.753H347.949L348.344 309.753C346.636 311.461 344.397 312.315 341.636 312.315C339.897 312.315 338.292 311.862 336.824 310.961C335.365 310.044 334.199 308.794 333.324 307.211C332.459 305.628 332.032 303.888 332.032 301.982C332.032 299.68 332.579 297.534 333.678 295.544C334.772 293.544 336.272 291.956 338.178 290.773C340.094 289.596 342.199 289.003 344.49 289.003C346.199 289.003 347.641 289.305 348.824 289.898C350.001 290.497 350.933 291.268 351.615 292.211L352.136 289.565ZM343.99 306.003C345.183 306.003 346.219 305.711 347.094 305.128C347.98 304.544 348.657 303.789 349.115 302.857C349.584 301.93 349.824 300.956 349.824 299.94C349.824 298.664 349.365 297.581 348.449 296.69C347.542 295.789 346.386 295.336 344.969 295.336C343.803 295.336 342.766 295.622 341.865 296.19C340.975 296.747 340.292 297.497 339.824 298.44C339.35 299.388 339.115 300.367 339.115 301.378C339.115 302.659 339.563 303.747 340.469 304.648C341.386 305.555 342.558 306.003 343.99 306.003Z" fill="white"/>
<path d="M370.05 295.836L368.821 302.148C368.748 302.497 368.716 302.742 368.716 302.877C368.716 303.669 368.987 304.294 369.529 304.752C370.071 305.211 370.784 305.44 371.675 305.44H373.341L372.091 311.752H369.321C366.789 311.752 364.826 311.122 363.425 309.857C362.034 308.596 361.341 306.893 361.341 304.752C361.341 304.185 361.409 303.518 361.55 302.752L362.925 295.836H359.3L360.529 289.565H364.154L365.321 283.669H372.446L371.279 289.565H376.404L375.175 295.836H370.05Z" fill="white"/>
<path d="M386.772 312.315C384.813 312.315 382.97 311.883 381.251 311.023C379.527 310.148 378.147 308.914 377.105 307.315C376.063 305.721 375.542 303.914 375.542 301.898C375.542 299.565 376.115 297.414 377.272 295.44C378.423 293.456 380.022 291.888 382.063 290.732C384.115 289.581 386.423 289.003 388.98 289.003C391.006 289.003 392.881 289.45 394.605 290.336C396.324 291.211 397.694 292.45 398.709 294.044C399.735 295.643 400.251 297.45 400.251 299.461C400.251 301.825 399.667 303.992 398.501 305.961C397.334 307.919 395.72 309.471 393.667 310.607C391.626 311.747 389.324 312.315 386.772 312.315ZM387.417 305.94C388.61 305.94 389.636 305.664 390.501 305.107C391.376 304.539 392.042 303.789 392.501 302.857C392.97 301.93 393.209 300.971 393.209 299.982C393.209 298.706 392.756 297.622 391.855 296.732C390.964 295.831 389.813 295.378 388.397 295.378C387.23 295.378 386.199 295.664 385.313 296.232C384.438 296.789 383.772 297.534 383.313 298.461C382.855 299.393 382.626 300.367 382.626 301.378C382.626 302.659 383.069 303.742 383.959 304.628C384.86 305.503 386.011 305.94 387.417 305.94Z" fill="white"/>
<path d="M287.833 175.396C280.552 175.396 274.667 169.484 274.667 162.161C274.667 154.844 280.552 148.932 287.833 148.932C295.12 148.932 301 154.87 301 162.161C301 169.458 295.089 175.396 287.833 175.396Z" fill="black"/>
<mask id="mask0_639_239" style="mask-type:luminance" maskUnits="userSpaceOnUse" x="218" y="138" width="44" height="42">
<path d="M218.667 138.031H261.333V180H218.667V138.031Z" fill="white"/>
</mask>
<g mask="url(#mask0_639_239)">
<path d="M261.099 158.99C261.099 170.568 251.766 179.927 240.271 179.927C228.755 179.927 219.417 170.542 219.417 158.99C219.391 147.411 228.724 138.031 240.245 138.031C251.766 138.031 261.099 147.411 261.099 158.99Z" fill="black"/>
</g>
<mask id="mask1_639_239" style="mask-type:luminance" maskUnits="userSpaceOnUse" x="182" y="176" width="28" height="63">
<path d="M182.714 176H209.333V238.667H182.714V176Z" fill="white"/>
</mask>
<g mask="url(#mask1_639_239)">
<path d="M196.083 176.047H196.193L196.271 176.073L196.38 176.104L196.432 176.13L196.516 176.156L196.594 176.182L196.677 176.208L196.755 176.24L196.839 176.266L196.948 176.292L197 176.318L197.109 176.344L197.161 176.375L197.271 176.401L197.323 176.427L197.349 176.453L197.484 176.51L197.62 176.563H197.677L197.839 176.615L198.161 176.781H198.188C198.349 176.859 198.51 176.943 198.672 177.052L198.781 177.104L198.807 177.13L198.891 177.188L198.969 177.24L199.026 177.266L199.13 177.349L199.188 177.375L199.292 177.458L199.349 177.484C199.427 177.568 199.536 177.646 199.62 177.703L199.646 177.729L199.781 177.839L199.807 177.865C200.104 178.135 200.401 178.406 200.698 178.734C202.26 180.443 203.693 182.906 204.823 185.943L204.906 186.135L204.932 186.188L204.958 186.219L205.12 186.677L205.146 186.729L205.177 186.76C205.229 186.922 205.281 187.083 205.365 187.276V187.328L205.526 187.844L205.552 187.896L205.578 187.953L205.74 188.438L205.766 188.521L205.901 188.953L205.932 189.063L205.958 189.146L206.094 189.604L206.146 189.74L206.281 190.229L206.307 190.339L206.443 190.88V190.932L206.469 191.016L206.578 191.531V191.583L206.604 191.641L206.74 192.208V192.266L206.875 192.859V192.943L206.984 193.536V193.568L207.089 194.161L207.115 194.245V194.271L207.224 194.813L207.25 194.922V194.974L207.359 195.599V195.625L207.443 196.224L207.469 196.359L207.547 196.953V197.01L207.578 197.12L207.63 197.604L207.656 197.797L207.74 198.365V198.5L207.792 199.099V199.26L207.875 199.911V199.964L207.927 200.641V200.724L207.979 201.349V201.536L208.005 202.052V202.271L208.036 202.922V203L208.063 203.651V203.896L208.089 204.469V204.63L208.115 205.224V208.536L208.089 209.13V209.292L208.063 209.865V210.104L208.036 210.755V210.839L208.005 211.49V211.708L207.979 212.25V212.438L207.927 213.063V213.146L207.875 213.823V213.875L207.792 214.552V214.661L207.708 215.286V215.396L207.63 215.964L207.604 216.047L207.578 216.156L207.521 216.641L207.495 216.75V216.802L207.411 217.401L207.385 217.536L207.307 218.161L207.198 218.813L207.172 218.891L207.063 219.542V219.573L206.953 220.224V220.302L206.823 220.927V220.953L206.688 221.578V221.604C206.63 221.823 206.578 222.036 206.526 222.255V222.281L206.359 222.906V222.932L206.198 223.505L206.172 223.583L206.036 224.125L206.01 224.208L205.849 224.75L205.823 224.776L205.797 224.885L205.661 225.318L205.635 225.401L205.474 225.917L205.443 225.943L205.417 226C205.365 226.188 205.307 226.349 205.255 226.51V226.542L205.068 227.026L205.042 227.057L205.01 227.109L204.849 227.568L204.823 227.599V227.625L204.745 227.844C203.365 231.448 201.641 234.24 199.698 235.922C199.453 236.141 199.188 236.354 198.917 236.521L198.755 236.625L198.594 236.734L198.271 236.901L198.104 236.979L197.943 237.063L197.781 237.141L197.62 237.224L197.458 237.276L197.297 237.333L197.135 237.385L196.974 237.443L196.651 237.547L196.49 237.578L196.167 237.63L196 237.656L195.839 237.688H195.49C195.38 237.688 195.276 237.688 195.167 237.656H195.057C195.005 237.656 194.922 237.63 194.87 237.63L194.76 237.604C194.682 237.578 194.625 237.578 194.547 237.578L194.438 237.547C194.354 237.521 194.302 237.521 194.224 237.495L194.115 237.469C194.063 237.443 193.979 237.443 193.896 237.411L193.792 237.385C193.734 237.359 193.656 237.333 193.599 237.333L193.469 237.276L193.302 237.224L193.141 237.141L192.979 237.063L192.818 236.979L192.656 236.901L192.521 236.818L192.333 236.708L192.224 236.625L192.063 236.521L191.901 236.411L191.766 236.302L191.443 236.083L191.307 235.974L191.172 235.87L190.849 235.599L190.714 235.49L190.417 235.193L190.281 235.026L190.146 234.865L190.016 234.703L189.88 234.542L189.719 234.349L189.609 234.188L189.448 233.995L189.339 233.833L189.203 233.646L189.094 233.479L188.932 233.266L188.828 233.13L188.667 232.885L188.557 232.724L188.422 232.505L188.313 232.344L188.177 232.099L188.073 231.911L187.911 231.635L187.828 231.5L187.667 231.203L187.583 231.042L187.422 230.745L187.344 230.609L187.151 230.203L187.125 230.146C187.047 229.984 186.99 229.849 186.911 229.688L186.885 229.656L186.724 229.276L186.667 229.172V229.141L186.453 228.656C186.37 228.49 186.318 228.302 186.234 228.141V228.115L186.047 227.599L186.021 227.568L185.833 227.057L185.807 227L185.641 226.51L185.615 226.484L185.536 226.188L185.453 225.917L185.375 225.672L185.266 225.318L185.214 225.104L185.104 224.724L185.047 224.505L184.943 224.125L184.885 223.938L184.781 223.474L184.724 223.26L184.62 222.88L184.536 222.578L184.458 222.255L184.401 221.984L184.323 221.578L184.266 221.359L184.188 220.953L184.13 220.63L184.052 220.276L183.995 219.948L183.943 219.625L183.891 219.271L183.833 218.922L183.781 218.651L183.698 218.214L183.646 217.917L183.594 217.589L183.536 217.182L183.484 216.833L183.432 216.531L183.375 216.125L183.323 215.802L183.297 215.474L183.24 215.068L183.214 214.771L183.161 214.391L183.135 214.01L183.109 213.661L183.078 213.25L183.052 212.927L183.026 212.547L183 212.193L182.974 211.813L182.943 211.406L182.917 211.109L182.891 210.677L182.865 210.38L182.839 209.891V209.865L182.813 209.182V209.104L182.781 208.396V208.344C182.781 207.828 182.755 207.339 182.755 206.823C182.755 189.823 188.422 176.047 195.438 176.047C195.677 175.995 195.87 176.021 196.083 176.047Z" fill="black"/>
</g>
<mask id="mask2_639_239" style="mask-type:luminance" maskUnits="userSpaceOnUse" x="182" y="168" width="136" height="101">
<path d="M182.714 168H317.297V268.031H182.714V168Z" fill="white"/>
</mask>
<g mask="url(#mask2_639_239)">
<path d="M304.531 168.62C311.844 169.104 317.672 175.26 317.672 182.719V235.651C317.672 243.432 311.359 249.781 303.615 249.781H247.016C245.396 249.781 244.078 251.109 244.078 252.734V268.031L224.083 250.62C223.438 250.078 222.74 249.807 221.901 249.807H218.609C211.703 249.807 205.901 244.708 204.745 238.094V237.714C202.479 241.563 199.724 243.839 196.729 243.839C189.016 243.839 182.781 228.656 182.781 209.943C182.781 209.62 182.781 209.292 182.781 208.969C183 226.188 188.797 239.964 195.922 239.964C199.292 239.964 202.396 236.87 204.714 231.745C207.386 225.891 209.089 217.427 209.089 207.99C209.089 198.557 207.412 190.094 204.714 184.234C202.505 177.458 198.349 174.771 193.224 175.641C197.62 174.286 202.208 176.13 204.714 180.359C205.688 174.667 210.109 170.083 215.724 168.917C219.636 178.651 229.104 185.536 240.219 185.536C251.417 185.536 260.99 178.516 264.823 168.62H271.083C273.646 175.37 280.172 180.167 287.807 180.167C295.443 180.141 301.943 175.37 304.531 168.62ZM218.151 183.234C215.964 183.234 214.188 185.021 214.188 187.219C214.188 189.417 215.964 191.208 218.151 191.208C220.339 191.208 222.115 189.417 222.115 187.219C222.115 185.021 220.339 183.234 218.151 183.234ZM276.557 211.599L262.828 203.625L249.094 195.651C248.042 195.031 246.802 195.031 245.75 195.651C244.698 196.276 244.078 197.333 244.078 198.583V230.417C244.078 231.667 244.698 232.724 245.75 233.344C246.828 233.969 248.042 233.969 249.094 233.344L262.828 225.375L276.557 217.401C277.636 216.776 278.229 215.719 278.229 214.474C278.229 213.224 277.636 212.224 276.557 211.599Z" fill="black"/>
</g>
<mask id="mask3_639_239" style="mask-type:luminance" maskUnits="userSpaceOnUse" x="273" y="132" width="37" height="42">
<path d="M273.911 132.714H309.911V173.714H273.911V132.714Z" fill="white"/>
</mask>
<g mask="url(#mask3_639_239)">
<path d="M280.365 151.057C281.463 149.651 282.463 148.167 283.25 146.573C284.703 143.641 285.437 140.333 287.391 137.703C289.406 134.99 292.656 133.224 296.052 132.969C299.443 132.713 302.911 133.958 305.38 136.276C308.323 139.031 309.75 143.13 309.807 147.146C309.885 152.38 307.818 157.463 304.901 161.833C301.542 166.859 296.802 171.25 290.948 172.891C288.828 173.49 286.588 173.713 284.401 173.422C282.219 173.135 280.088 172.323 278.344 170.984C276.745 169.76 275.484 168.099 274.776 166.219C274.068 164.338 273.922 162.255 274.401 160.307C274.838 158.51 275.786 156.875 276.88 155.385C277.974 153.891 279.224 152.516 280.365 151.057Z" fill="black"/>
</g>
<mask id="mask4_639_239" style="mask-type:luminance" maskUnits="userSpaceOnUse" x="273" y="134" width="37" height="40">
<path d="M273.911 134.667H309.911V173.714H273.911V134.667Z" fill="white"/>
</mask>
<g mask="url(#mask4_639_239)">
<path d="M303.995 135.177C305.682 139.656 306.052 144.62 304.963 149.281C304.135 152.812 302.474 156.198 299.906 158.781C297.338 161.359 293.828 163.089 290.172 163.203C286.724 163.312 283.25 161.948 280.807 159.531C279.365 158.094 278.302 156.297 277.687 154.365C277.422 154.703 277.135 155.031 276.88 155.385C275.786 156.875 274.838 158.51 274.401 160.302C273.922 162.25 274.068 164.344 274.776 166.219C275.479 168.099 276.745 169.76 278.349 170.984C280.088 172.323 282.219 173.13 284.406 173.422C286.588 173.708 288.828 173.49 290.953 172.891C296.802 171.245 301.542 166.859 304.901 161.833C307.818 157.464 309.885 152.38 309.807 147.146C309.75 143.135 308.323 139.031 305.38 136.271C304.953 135.87 304.484 135.51 303.995 135.177Z" fill="black"/>
</g>
<path d="M301.901 149.865C302.078 149.724 302.323 149.677 302.537 149.745C302.75 149.807 302.927 149.979 303 150.193C303.037 150.307 303.042 150.432 303.016 150.552C302.99 150.667 302.932 150.781 302.849 150.87C302.766 150.958 302.656 151.026 302.542 151.063C302.427 151.099 302.302 151.104 302.182 151.078C302.052 151.047 301.932 150.984 301.844 150.896C301.75 150.802 301.682 150.688 301.656 150.557C301.625 150.432 301.636 150.297 301.677 150.177C301.719 150.057 301.797 149.948 301.901 149.865Z" fill="black"/>
<path d="M278.906 160.266C278.995 160.094 279.13 159.943 279.292 159.844C279.458 159.745 279.656 159.693 279.849 159.698C280.042 159.698 280.234 159.76 280.396 159.87C280.557 159.974 280.682 160.13 280.76 160.307C280.839 160.495 280.865 160.703 280.823 160.906C280.781 161.104 280.682 161.286 280.536 161.427C280.391 161.573 280.198 161.667 279.995 161.698C279.792 161.734 279.583 161.703 279.396 161.62C279.151 161.505 278.958 161.292 278.87 161.042C278.776 160.792 278.792 160.505 278.911 160.266H278.906Z" fill="black"/>
<path d="M297.479 137.63C297.646 137.5 297.88 137.453 298.089 137.516C298.292 137.578 298.464 137.745 298.526 137.948C298.563 138.057 298.568 138.177 298.542 138.286C298.516 138.401 298.464 138.51 298.386 138.594C298.307 138.677 298.203 138.745 298.094 138.776C297.979 138.812 297.86 138.818 297.745 138.792C297.625 138.766 297.511 138.703 297.422 138.615C297.333 138.531 297.271 138.417 297.245 138.297C297.219 138.177 297.224 138.047 297.266 137.932C297.307 137.812 297.38 137.708 297.479 137.63Z" fill="black"/>
<path d="M288.396 144.922C288.63 144.74 288.953 144.677 289.24 144.76C289.526 144.849 289.766 145.078 289.854 145.359C289.911 145.516 289.917 145.682 289.875 145.839C289.844 146 289.766 146.146 289.656 146.266C289.547 146.385 289.401 146.474 289.25 146.521C289.094 146.573 288.927 146.578 288.766 146.542C288.594 146.505 288.438 146.417 288.313 146.297C288.193 146.177 288.104 146.021 288.063 145.849C288.026 145.682 288.036 145.505 288.094 145.339C288.151 145.177 288.255 145.031 288.391 144.922H288.396Z" fill="black"/>
<path d="M288.109 168.172C288.365 167.974 288.713 167.906 289.021 168C289.328 168.094 289.583 168.344 289.682 168.646C289.74 168.812 289.745 168.99 289.708 169.161C289.672 169.328 289.588 169.49 289.474 169.615C289.354 169.745 289.203 169.839 289.036 169.891C288.87 169.948 288.687 169.953 288.516 169.917C288.333 169.875 288.161 169.786 288.031 169.656C287.896 169.526 287.802 169.354 287.76 169.172C287.719 168.995 287.729 168.802 287.792 168.625C287.854 168.453 287.969 168.297 288.115 168.177L288.109 168.172Z" fill="black"/>
<path d="M299.573 160.859C299.76 160.714 300.021 160.661 300.25 160.729C300.479 160.797 300.667 160.984 300.745 161.208C300.786 161.333 300.792 161.464 300.76 161.594C300.729 161.719 300.667 161.839 300.578 161.932C300.49 162.026 300.38 162.099 300.255 162.135C300.13 162.177 299.995 162.177 299.87 162.151C299.734 162.12 299.604 162.052 299.505 161.953C299.411 161.859 299.338 161.734 299.307 161.599C299.276 161.464 299.286 161.323 299.328 161.193C299.375 161.062 299.458 160.943 299.568 160.859H299.573Z" fill="black"/>
<path d="M290.422 156.51C290.568 156.396 290.771 156.359 290.953 156.411C291.13 156.464 291.276 156.609 291.333 156.786C291.37 156.88 291.375 156.984 291.349 157.083C291.328 157.182 291.281 157.276 291.214 157.349C291.146 157.422 291.057 157.479 290.958 157.51C290.859 157.542 290.755 157.547 290.656 157.526C290.552 157.5 290.453 157.448 290.375 157.37C290.297 157.297 290.245 157.198 290.219 157.094C290.193 156.99 290.203 156.875 290.234 156.776C290.271 156.672 290.339 156.583 290.422 156.516V156.51Z" fill="black"/>
<path d="M289.141 138.193C289.875 137.26 290.781 136.458 291.802 135.844C292.828 135.234 293.964 134.802 295.146 134.615C295.526 134.552 295.917 134.516 296.302 134.578C296.682 134.635 297.057 134.797 297.323 135.078C297.547 135.318 297.672 135.635 297.708 135.958C297.74 136.286 297.677 136.615 297.562 136.922C297.323 137.526 296.859 138.021 296.391 138.474C295.641 139.193 294.849 139.859 294.099 140.578C293.578 141.078 293.078 141.604 292.51 142.057C291.943 142.51 291.297 142.885 290.583 143.042C290.187 143.125 289.776 143.135 289.38 143.036C288.99 142.937 288.62 142.724 288.375 142.406C288.135 142.104 288.016 141.724 287.984 141.339C287.958 140.958 288.026 140.573 288.125 140.203C288.323 139.474 288.672 138.786 289.141 138.193Z" fill="black"/>
<mask id="mask5_639_239" style="mask-type:luminance" maskUnits="userSpaceOnUse" x="218" y="116" width="56" height="65">
<path d="M218.667 116.661H273.516V180.662H218.667V116.661Z" fill="white"/>
</mask>
<g mask="url(#mask5_639_239)">
<path d="M228.375 145.297C230.057 143.104 231.583 140.792 232.787 138.302C235.005 133.724 236.13 128.563 239.109 124.458C242.188 120.219 247.162 117.464 252.344 117.063C257.526 116.662 262.828 118.604 266.599 122.224C271.094 126.531 273.271 132.927 273.365 139.193C273.484 147.365 270.323 155.302 265.865 162.12C260.734 169.964 253.49 176.818 244.547 179.385C241.307 180.318 237.886 180.667 234.547 180.214C231.208 179.76 227.953 178.495 225.292 176.406C222.844 174.495 220.917 171.901 219.833 168.969C218.755 166.037 218.531 162.776 219.261 159.734C219.938 156.938 221.38 154.385 223.052 152.052C224.724 149.719 226.636 147.573 228.375 145.297Z" fill="black"/>
</g>
<mask id="mask6_639_239" style="mask-type:luminance" maskUnits="userSpaceOnUse" x="218" y="120" width="56" height="61">
<path d="M218.667 120H273.516V180.661H218.667V120Z" fill="white"/>
</mask>
<g mask="url(#mask6_639_239)">
<path d="M264.484 120.51C267.063 127.5 267.625 135.255 265.958 142.526C264.698 148.042 262.162 153.328 258.234 157.354C254.313 161.385 248.948 164.078 243.359 164.26C238.089 164.432 232.787 162.302 229.052 158.526C226.844 156.286 225.219 153.479 224.287 150.464C223.875 150.99 223.448 151.505 223.052 152.052C221.38 154.385 219.932 156.938 219.26 159.734C218.531 162.776 218.75 166.036 219.833 168.969C220.917 171.901 222.849 174.495 225.292 176.406C227.958 178.49 231.208 179.76 234.547 180.214C237.885 180.661 241.313 180.313 244.552 179.385C253.495 176.818 260.734 169.969 265.865 162.12C270.323 155.302 273.484 147.365 273.365 139.198C273.271 132.932 271.094 126.531 266.599 122.224C265.943 121.594 265.224 121.036 264.484 120.51Z" fill="black"/>
</g>
<path d="M261.281 143.438C261.552 143.219 261.927 143.146 262.255 143.25C262.583 143.349 262.854 143.62 262.958 143.953C263.016 144.13 263.026 144.323 262.984 144.51C262.943 144.693 262.854 144.87 262.729 145.005C262.604 145.146 262.437 145.255 262.26 145.307C262.083 145.365 261.891 145.375 261.708 145.333C261.516 145.281 261.333 145.188 261.193 145.047C261.052 144.901 260.953 144.719 260.906 144.521C260.859 144.323 260.875 144.115 260.937 143.927C261.005 143.734 261.125 143.563 261.281 143.438Z" fill="black"/>
<path d="M226.151 159.672C226.281 159.401 226.484 159.172 226.74 159.016C226.99 158.859 227.292 158.776 227.583 158.787C227.88 158.792 228.177 158.885 228.422 159.057C228.667 159.224 228.865 159.464 228.979 159.74C229.104 160.031 229.135 160.359 229.078 160.672C229.016 160.979 228.859 161.271 228.635 161.49C228.411 161.714 228.12 161.859 227.813 161.912C227.505 161.969 227.182 161.922 226.896 161.787C226.526 161.609 226.224 161.276 226.089 160.885C225.953 160.495 225.974 160.047 226.156 159.672H226.151Z" fill="black"/>
<path d="M254.526 124.344C254.781 124.135 255.141 124.068 255.453 124.161C255.766 124.26 256.026 124.521 256.125 124.833C256.182 125.005 256.193 125.193 256.151 125.37C256.109 125.547 256.026 125.714 255.906 125.844C255.786 125.979 255.63 126.078 255.463 126.13C255.292 126.188 255.109 126.198 254.932 126.156C254.75 126.115 254.573 126.016 254.437 125.88C254.307 125.745 254.208 125.568 254.167 125.38C254.125 125.193 254.135 124.995 254.198 124.813C254.266 124.63 254.375 124.464 254.526 124.344Z" fill="black"/>
<path d="M240.646 135.724C241 135.437 241.5 135.339 241.937 135.474C242.375 135.609 242.739 135.969 242.88 136.411C242.958 136.651 242.969 136.911 242.911 137.156C242.864 137.401 242.739 137.635 242.573 137.818C242.406 138.005 242.187 138.146 241.948 138.219C241.713 138.302 241.453 138.307 241.213 138.255C240.953 138.193 240.708 138.057 240.521 137.87C240.333 137.677 240.198 137.437 240.141 137.172C240.083 136.911 240.099 136.63 240.182 136.375C240.271 136.125 240.427 135.896 240.635 135.729L240.646 135.724Z" fill="black"/>
<path d="M240.214 172.021C240.599 171.708 241.135 171.604 241.604 171.75C242.073 171.891 242.464 172.281 242.615 172.755C242.698 173.01 242.708 173.292 242.656 173.557C242.599 173.823 242.474 174.073 242.292 174.271C242.109 174.469 241.875 174.62 241.62 174.703C241.37 174.786 241.089 174.797 240.828 174.745C240.552 174.677 240.292 174.536 240.089 174.328C239.885 174.125 239.74 173.865 239.677 173.578C239.615 173.297 239.63 173 239.724 172.724C239.818 172.453 239.995 172.208 240.214 172.026V172.021Z" fill="black"/>
<path d="M257.724 160.599C258.01 160.37 258.411 160.292 258.76 160.401C259.109 160.505 259.401 160.797 259.51 161.146C259.578 161.339 259.583 161.547 259.536 161.745C259.495 161.943 259.396 162.125 259.266 162.276C259.13 162.422 258.953 162.537 258.766 162.594C258.578 162.662 258.37 162.662 258.177 162.62C257.969 162.568 257.776 162.464 257.625 162.313C257.474 162.162 257.37 161.964 257.318 161.755C257.271 161.547 257.286 161.323 257.354 161.12C257.427 160.917 257.552 160.734 257.719 160.599H257.724Z" fill="black"/>
<path d="M243.745 153.812C243.964 153.635 244.276 153.573 244.552 153.656C244.823 153.74 245.052 153.964 245.141 154.24C245.187 154.391 245.193 154.552 245.161 154.708C245.13 154.859 245.057 155.005 244.948 155.12C244.844 155.24 244.708 155.323 244.562 155.37C244.417 155.422 244.255 155.432 244.104 155.396C243.943 155.354 243.792 155.276 243.672 155.156C243.552 155.036 243.469 154.885 243.432 154.724C243.396 154.557 243.411 154.385 243.458 154.224C243.516 154.068 243.615 153.922 243.745 153.818V153.812Z" fill="black"/>
<path d="M241.781 125.219C242.906 123.766 244.292 122.516 245.854 121.557C247.417 120.599 249.156 119.927 250.958 119.63C251.542 119.536 252.141 119.479 252.724 119.573C253.312 119.667 253.885 119.917 254.286 120.359C254.625 120.734 254.823 121.229 254.87 121.734C254.922 122.24 254.833 122.755 254.651 123.234C254.286 124.182 253.578 124.948 252.859 125.656C251.719 126.781 250.505 127.818 249.359 128.937C248.562 129.724 247.797 130.547 246.932 131.25C246.062 131.958 245.078 132.547 243.99 132.786C243.385 132.917 242.75 132.932 242.151 132.781C241.552 132.625 240.995 132.292 240.615 131.797C240.25 131.323 240.062 130.729 240.021 130.13C239.979 129.536 240.078 128.937 240.229 128.359C240.536 127.224 241.068 126.151 241.781 125.224V125.219Z" fill="black"/>
<path d="M84.513 391.331C84.513 390.923 84.5867 390.543 84.734 390.192C84.8927 389.841 85.1023 389.535 85.363 389.274C85.635 389.013 85.9523 388.809 86.315 388.662C86.6777 388.503 87.0743 388.424 87.505 388.424C87.9243 388.424 88.3153 388.503 88.678 388.662C89.0407 388.809 89.358 389.013 89.63 389.274C89.902 389.535 90.1117 389.841 90.259 390.192C90.4177 390.543 90.497 390.923 90.497 391.331C90.497 391.739 90.4177 392.124 90.259 392.487C90.1117 392.838 89.902 393.144 89.63 393.405C89.358 393.666 89.0407 393.87 88.678 394.017C88.3153 394.164 87.9243 394.238 87.505 394.238C87.0743 394.238 86.6777 394.164 86.315 394.017C85.9523 393.87 85.635 393.666 85.363 393.405C85.1023 393.144 84.8927 392.838 84.734 392.487C84.5867 392.124 84.513 391.739 84.513 391.331ZM84.513 379.72C84.513 379.312 84.5867 378.932 84.734 378.581C84.8927 378.23 85.1023 377.924 85.363 377.663C85.635 377.402 85.9523 377.198 86.315 377.051C86.6777 376.892 87.0743 376.813 87.505 376.813C87.9243 376.813 88.3153 376.892 88.678 377.051C89.0407 377.198 89.358 377.402 89.63 377.663C89.902 377.924 90.1117 378.23 90.259 378.581C90.4177 378.932 90.497 379.312 90.497 379.72C90.497 380.128 90.4177 380.513 90.259 380.876C90.1117 381.227 89.902 381.533 89.63 381.794C89.358 382.055 89.0407 382.259 88.678 382.406C88.3153 382.553 87.9243 382.627 87.505 382.627C87.0743 382.627 86.6777 382.553 86.315 382.406C85.9523 382.259 85.635 382.055 85.363 381.794C85.1023 381.533 84.8927 381.227 84.734 380.876C84.5867 380.513 84.513 380.128 84.513 379.72ZM97.863 393.796C97.7384 394.102 97.574 394.374 97.37 394.612C97.1774 394.85 96.9564 395.048 96.707 395.207C96.469 395.366 96.2084 395.485 95.925 395.564C95.653 395.643 95.381 395.683 95.109 395.683H92.865L102.521 370.336C102.748 369.758 103.093 369.316 103.558 369.01C104.023 368.704 104.561 368.551 105.173 368.551H107.417L97.863 393.796ZM124.074 369.418H127.763C128.16 369.418 128.483 369.514 128.732 369.707C128.981 369.9 129.168 370.149 129.293 370.455L135.073 385.449C135.266 385.936 135.447 386.475 135.617 387.064C135.798 387.642 135.968 388.254 136.127 388.9C136.388 387.597 136.711 386.446 137.096 385.449L142.859 370.455C142.961 370.194 143.142 369.956 143.403 369.741C143.664 369.526 143.987 369.418 144.372 369.418H148.061L138.133 394H134.002L124.074 369.418ZM154.86 376.558V394H150.661V376.558H154.86ZM155.489 371.475C155.489 371.838 155.415 372.178 155.268 372.495C155.12 372.812 154.922 373.09 154.673 373.328C154.435 373.566 154.151 373.759 153.823 373.906C153.494 374.042 153.143 374.11 152.769 374.11C152.406 374.11 152.06 374.042 151.732 373.906C151.414 373.759 151.137 373.566 150.899 373.328C150.661 373.09 150.468 372.812 150.321 372.495C150.185 372.178 150.117 371.838 150.117 371.475C150.117 371.101 150.185 370.75 150.321 370.421C150.468 370.092 150.661 369.809 150.899 369.571C151.137 369.333 151.414 369.146 151.732 369.01C152.06 368.863 152.406 368.789 152.769 368.789C153.143 368.789 153.494 368.863 153.823 369.01C154.151 369.146 154.435 369.333 154.673 369.571C154.922 369.809 155.12 370.092 155.268 370.421C155.415 370.75 155.489 371.101 155.489 371.475ZM171.893 394C171.349 394 170.992 393.745 170.822 393.235L170.482 391.552C170.119 391.96 169.74 392.328 169.343 392.657C168.946 392.986 168.516 393.269 168.051 393.507C167.598 393.745 167.105 393.926 166.572 394.051C166.051 394.187 165.484 394.255 164.872 394.255C163.92 394.255 163.047 394.057 162.254 393.66C161.461 393.263 160.775 392.691 160.197 391.943C159.63 391.184 159.188 390.249 158.871 389.138C158.565 388.027 158.412 386.758 158.412 385.33C158.412 384.038 158.588 382.837 158.939 381.726C159.29 380.615 159.795 379.652 160.452 378.836C161.109 378.02 161.897 377.385 162.815 376.932C163.733 376.467 164.764 376.235 165.909 376.235C166.884 376.235 167.717 376.394 168.408 376.711C169.099 377.017 169.717 377.431 170.261 377.952V368.738H174.46V394H171.893ZM166.3 390.923C167.173 390.923 167.915 390.742 168.527 390.379C169.139 390.016 169.717 389.501 170.261 388.832V381.012C169.785 380.434 169.264 380.026 168.697 379.788C168.142 379.55 167.541 379.431 166.895 379.431C166.26 379.431 165.682 379.55 165.161 379.788C164.651 380.026 164.215 380.389 163.852 380.876C163.501 381.352 163.229 381.964 163.036 382.712C162.843 383.449 162.747 384.321 162.747 385.33C162.747 386.35 162.826 387.217 162.985 387.931C163.155 388.634 163.393 389.212 163.699 389.665C164.005 390.107 164.379 390.43 164.821 390.634C165.263 390.827 165.756 390.923 166.3 390.923ZM186.218 376.286C187.317 376.286 188.326 376.462 189.244 376.813C190.173 377.164 190.972 377.68 191.641 378.36C192.309 379.029 192.831 379.856 193.205 380.842C193.579 381.817 193.766 382.933 193.766 384.191C193.766 384.508 193.749 384.775 193.715 384.99C193.692 385.194 193.641 385.358 193.562 385.483C193.494 385.596 193.397 385.681 193.273 385.738C193.148 385.783 192.989 385.806 192.797 385.806H182.019C182.143 387.597 182.625 388.911 183.464 389.75C184.302 390.589 185.413 391.008 186.796 391.008C187.476 391.008 188.059 390.929 188.547 390.77C189.045 390.611 189.476 390.436 189.839 390.243C190.213 390.05 190.536 389.875 190.808 389.716C191.091 389.557 191.363 389.478 191.624 389.478C191.794 389.478 191.941 389.512 192.066 389.58C192.19 389.648 192.298 389.744 192.389 389.869L193.613 391.399C193.148 391.943 192.627 392.402 192.049 392.776C191.471 393.139 190.864 393.433 190.23 393.66C189.606 393.875 188.966 394.028 188.309 394.119C187.663 394.21 187.034 394.255 186.422 394.255C185.209 394.255 184.081 394.057 183.039 393.66C181.996 393.252 181.089 392.657 180.319 391.875C179.548 391.082 178.942 390.107 178.5 388.951C178.058 387.784 177.837 386.435 177.837 384.905C177.837 383.715 178.029 382.599 178.415 381.556C178.8 380.502 179.35 379.59 180.064 378.819C180.789 378.037 181.667 377.419 182.699 376.966C183.741 376.513 184.914 376.286 186.218 376.286ZM186.303 379.295C185.079 379.295 184.121 379.641 183.43 380.332C182.738 381.023 182.296 382.004 182.104 383.273H189.992C189.992 382.729 189.918 382.219 189.771 381.743C189.623 381.256 189.397 380.831 189.091 380.468C188.785 380.105 188.399 379.822 187.935 379.618C187.47 379.403 186.926 379.295 186.303 379.295ZM204.618 376.286C205.921 376.286 207.1 376.496 208.154 376.915C209.219 377.334 210.126 377.929 210.874 378.7C211.622 379.471 212.2 380.411 212.608 381.522C213.016 382.633 213.22 383.874 213.22 385.245C213.22 386.628 213.016 387.874 212.608 388.985C212.2 390.096 211.622 391.042 210.874 391.824C210.126 392.606 209.219 393.207 208.154 393.626C207.1 394.045 205.921 394.255 204.618 394.255C203.314 394.255 202.13 394.045 201.065 393.626C199.999 393.207 199.087 392.606 198.328 391.824C197.58 391.042 196.996 390.096 196.577 388.985C196.169 387.874 195.965 386.628 195.965 385.245C195.965 383.874 196.169 382.633 196.577 381.522C196.996 380.411 197.58 379.471 198.328 378.7C199.087 377.929 199.999 377.334 201.065 376.915C202.13 376.496 203.314 376.286 204.618 376.286ZM204.618 391.025C206.068 391.025 207.139 390.538 207.831 389.563C208.533 388.588 208.885 387.16 208.885 385.279C208.885 383.398 208.533 381.964 207.831 380.978C207.139 379.992 206.068 379.499 204.618 379.499C203.144 379.499 202.056 379.998 201.354 380.995C200.651 381.981 200.3 383.409 200.3 385.279C200.3 387.149 200.651 388.577 201.354 389.563C202.056 390.538 203.144 391.025 204.618 391.025ZM223.07 394V376.558H225.637C226.181 376.558 226.538 376.813 226.708 377.323L226.997 378.7C227.349 378.337 227.717 378.009 228.102 377.714C228.499 377.419 228.913 377.164 229.343 376.949C229.785 376.734 230.256 376.569 230.754 376.456C231.253 376.343 231.797 376.286 232.386 376.286C233.338 376.286 234.183 376.45 234.919 376.779C235.656 377.096 236.268 377.55 236.755 378.139C237.254 378.717 237.628 379.414 237.877 380.23C238.138 381.035 238.268 381.924 238.268 382.899V394H234.069V382.899C234.069 381.834 233.82 381.012 233.321 380.434C232.834 379.845 232.097 379.55 231.111 379.55C230.386 379.55 229.706 379.714 229.071 380.043C228.437 380.372 227.836 380.819 227.269 381.386V394H223.07ZM249.84 376.286C251.144 376.286 252.322 376.496 253.376 376.915C254.442 377.334 255.348 377.929 256.096 378.7C256.844 379.471 257.422 380.411 257.83 381.522C258.238 382.633 258.442 383.874 258.442 385.245C258.442 386.628 258.238 387.874 257.83 388.985C257.422 390.096 256.844 391.042 256.096 391.824C255.348 392.606 254.442 393.207 253.376 393.626C252.322 394.045 251.144 394.255 249.84 394.255C248.537 394.255 247.353 394.045 246.287 393.626C245.222 393.207 244.31 392.606 243.55 391.824C242.802 391.042 242.219 390.096 241.799 388.985C241.391 387.874 241.187 386.628 241.187 385.245C241.187 383.874 241.391 382.633 241.799 381.522C242.219 380.411 242.802 379.471 243.55 378.7C244.31 377.929 245.222 377.334 246.287 376.915C247.353 376.496 248.537 376.286 249.84 376.286ZM249.84 391.025C251.291 391.025 252.362 390.538 253.053 389.563C253.756 388.588 254.107 387.16 254.107 385.279C254.107 383.398 253.756 381.964 253.053 380.978C252.362 379.992 251.291 379.499 249.84 379.499C248.367 379.499 247.279 379.998 246.576 380.995C245.874 381.981 245.522 383.409 245.522 385.279C245.522 387.149 245.874 388.577 246.576 389.563C247.279 390.538 248.367 391.025 249.84 391.025ZM267.448 394.272C265.94 394.272 264.779 393.847 263.963 392.997C263.147 392.136 262.739 390.951 262.739 389.444V379.703H260.971C260.744 379.703 260.546 379.629 260.376 379.482C260.217 379.335 260.138 379.114 260.138 378.819V377.153L262.943 376.694L263.827 371.934C263.872 371.707 263.974 371.532 264.133 371.407C264.303 371.282 264.512 371.22 264.762 371.22H266.938V376.711H271.528V379.703H266.938V389.155C266.938 389.699 267.074 390.124 267.346 390.43C267.618 390.736 267.98 390.889 268.434 390.889C268.694 390.889 268.91 390.861 269.08 390.804C269.261 390.736 269.414 390.668 269.539 390.6C269.675 390.532 269.794 390.47 269.896 390.413C269.998 390.345 270.1 390.311 270.202 390.311C270.326 390.311 270.428 390.345 270.508 390.413C270.587 390.47 270.672 390.56 270.763 390.685L272.021 392.725C271.409 393.235 270.706 393.62 269.913 393.881C269.119 394.142 268.298 394.272 267.448 394.272ZM295.109 394H293.222C292.826 394 292.514 393.943 292.287 393.83C292.061 393.705 291.891 393.462 291.777 393.099L291.403 391.858C290.961 392.255 290.525 392.606 290.094 392.912C289.675 393.207 289.239 393.456 288.785 393.66C288.332 393.864 287.85 394.017 287.34 394.119C286.83 394.221 286.264 394.272 285.64 394.272C284.904 394.272 284.224 394.176 283.6 393.983C282.977 393.779 282.439 393.479 281.985 393.082C281.543 392.685 281.198 392.192 280.948 391.603C280.699 391.014 280.574 390.328 280.574 389.546C280.574 388.889 280.744 388.243 281.084 387.608C281.436 386.962 282.014 386.384 282.818 385.874C283.623 385.353 284.694 384.922 286.031 384.582C287.369 384.242 289.029 384.049 291.012 384.004V382.984C291.012 381.817 290.763 380.955 290.264 380.4C289.777 379.833 289.063 379.55 288.122 379.55C287.442 379.55 286.876 379.629 286.422 379.788C285.969 379.947 285.572 380.128 285.232 380.332C284.904 380.525 284.598 380.7 284.314 380.859C284.031 381.018 283.719 381.097 283.379 381.097C283.096 381.097 282.852 381.023 282.648 380.876C282.444 380.729 282.28 380.547 282.155 380.332L281.39 378.989C283.396 377.153 285.816 376.235 288.649 376.235C289.669 376.235 290.576 376.405 291.369 376.745C292.174 377.074 292.854 377.538 293.409 378.139C293.965 378.728 294.384 379.437 294.667 380.264C294.962 381.091 295.109 381.998 295.109 382.984V394ZM286.949 391.382C287.38 391.382 287.777 391.342 288.139 391.263C288.502 391.184 288.842 391.065 289.159 390.906C289.488 390.747 289.8 390.555 290.094 390.328C290.4 390.09 290.706 389.812 291.012 389.495V386.554C289.788 386.611 288.763 386.718 287.935 386.877C287.119 387.024 286.462 387.217 285.963 387.455C285.465 387.693 285.108 387.971 284.892 388.288C284.688 388.605 284.586 388.951 284.586 389.325C284.586 390.062 284.802 390.589 285.232 390.906C285.674 391.223 286.247 391.382 286.949 391.382ZM307.378 394H303.57L296.634 376.558H300.119C300.425 376.558 300.68 376.632 300.884 376.779C301.1 376.926 301.247 377.113 301.326 377.34L304.692 386.656C304.885 387.2 305.044 387.733 305.168 388.254C305.304 388.775 305.423 389.297 305.525 389.818C305.627 389.297 305.741 388.775 305.865 388.254C306.001 387.733 306.171 387.2 306.375 386.656L309.826 377.34C309.906 377.113 310.047 376.926 310.251 376.779C310.455 376.632 310.699 376.558 310.982 376.558H314.297L307.378 394ZM330.437 394H328.55C328.154 394 327.842 393.943 327.615 393.83C327.389 393.705 327.219 393.462 327.105 393.099L326.731 391.858C326.289 392.255 325.853 392.606 325.422 392.912C325.003 393.207 324.567 393.456 324.113 393.66C323.66 393.864 323.178 394.017 322.668 394.119C322.158 394.221 321.592 394.272 320.968 394.272C320.232 394.272 319.552 394.176 318.928 393.983C318.305 393.779 317.767 393.479 317.313 393.082C316.871 392.685 316.526 392.192 316.276 391.603C316.027 391.014 315.902 390.328 315.902 389.546C315.902 388.889 316.072 388.243 316.412 387.608C316.764 386.962 317.342 386.384 318.146 385.874C318.951 385.353 320.022 384.922 321.359 384.582C322.697 384.242 324.357 384.049 326.34 384.004V382.984C326.34 381.817 326.091 380.955 325.592 380.4C325.105 379.833 324.391 379.55 323.45 379.55C322.77 379.55 322.204 379.629 321.75 379.788C321.297 379.947 320.9 380.128 320.56 380.332C320.232 380.525 319.926 380.7 319.642 380.859C319.359 381.018 319.047 381.097 318.707 381.097C318.424 381.097 318.18 381.023 317.976 380.876C317.772 380.729 317.608 380.547 317.483 380.332L316.718 378.989C318.724 377.153 321.144 376.235 323.977 376.235C324.997 376.235 325.904 376.405 326.697 376.745C327.502 377.074 328.182 377.538 328.737 378.139C329.293 378.728 329.712 379.437 329.995 380.264C330.29 381.091 330.437 381.998 330.437 382.984V394ZM322.277 391.382C322.708 391.382 323.105 391.342 323.467 391.263C323.83 391.184 324.17 391.065 324.487 390.906C324.816 390.747 325.128 390.555 325.422 390.328C325.728 390.09 326.034 389.812 326.34 389.495V386.554C325.116 386.611 324.091 386.718 323.263 386.877C322.447 387.024 321.79 387.217 321.291 387.455C320.793 387.693 320.436 387.971 320.22 388.288C320.016 388.605 319.914 388.951 319.914 389.325C319.914 390.062 320.13 390.589 320.56 390.906C321.002 391.223 321.575 391.382 322.277 391.382ZM339.037 376.558V394H334.838V376.558H339.037ZM339.666 371.475C339.666 371.838 339.593 372.178 339.445 372.495C339.298 372.812 339.1 373.09 338.85 373.328C338.612 373.566 338.329 373.759 338 373.906C337.672 374.042 337.32 374.11 336.946 374.11C336.584 374.11 336.238 374.042 335.909 373.906C335.592 373.759 335.314 373.566 335.076 373.328C334.838 373.09 334.646 372.812 334.498 372.495C334.362 372.178 334.294 371.838 334.294 371.475C334.294 371.101 334.362 370.75 334.498 370.421C334.646 370.092 334.838 369.809 335.076 369.571C335.314 369.333 335.592 369.146 335.909 369.01C336.238 368.863 336.584 368.789 336.946 368.789C337.32 368.789 337.672 368.863 338 369.01C338.329 369.146 338.612 369.333 338.85 369.571C339.1 369.809 339.298 370.092 339.445 370.421C339.593 370.75 339.666 371.101 339.666 371.475ZM348.268 368.738V394H344.069V368.738H348.268ZM366.695 394H364.808C364.412 394 364.1 393.943 363.873 393.83C363.647 393.705 363.477 393.462 363.363 393.099L362.989 391.858C362.547 392.255 362.111 392.606 361.68 392.912C361.261 393.207 360.825 393.456 360.371 393.66C359.918 393.864 359.436 394.017 358.926 394.119C358.416 394.221 357.85 394.272 357.226 394.272C356.49 394.272 355.81 394.176 355.186 393.983C354.563 393.779 354.025 393.479 353.571 393.082C353.129 392.685 352.784 392.192 352.534 391.603C352.285 391.014 352.16 390.328 352.16 389.546C352.16 388.889 352.33 388.243 352.67 387.608C353.022 386.962 353.6 386.384 354.404 385.874C355.209 385.353 356.28 384.922 357.617 384.582C358.955 384.242 360.615 384.049 362.598 384.004V382.984C362.598 381.817 362.349 380.955 361.85 380.4C361.363 379.833 360.649 379.55 359.708 379.55C359.028 379.55 358.462 379.629 358.008 379.788C357.555 379.947 357.158 380.128 356.818 380.332C356.49 380.525 356.184 380.7 355.9 380.859C355.617 381.018 355.305 381.097 354.965 381.097C354.682 381.097 354.438 381.023 354.234 380.876C354.03 380.729 353.866 380.547 353.741 380.332L352.976 378.989C354.982 377.153 357.402 376.235 360.235 376.235C361.255 376.235 362.162 376.405 362.955 376.745C363.76 377.074 364.44 377.538 364.995 378.139C365.551 378.728 365.97 379.437 366.253 380.264C366.548 381.091 366.695 381.998 366.695 382.984V394ZM358.535 391.382C358.966 391.382 359.363 391.342 359.725 391.263C360.088 391.184 360.428 391.065 360.745 390.906C361.074 390.747 361.386 390.555 361.68 390.328C361.986 390.09 362.292 389.812 362.598 389.495V386.554C361.374 386.611 360.349 386.718 359.521 386.877C358.705 387.024 358.048 387.217 357.549 387.455C357.051 387.693 356.694 387.971 356.478 388.288C356.274 388.605 356.172 388.951 356.172 389.325C356.172 390.062 356.388 390.589 356.818 390.906C357.26 391.223 357.833 391.382 358.535 391.382ZM370.875 394V368.738H375.074V378.7C375.765 377.963 376.547 377.38 377.42 376.949C378.293 376.507 379.313 376.286 380.48 376.286C381.432 376.286 382.299 376.484 383.081 376.881C383.874 377.266 384.554 377.833 385.121 378.581C385.699 379.329 386.141 380.253 386.447 381.352C386.764 382.451 386.923 383.715 386.923 385.143C386.923 386.446 386.747 387.653 386.396 388.764C386.045 389.875 385.54 390.838 384.883 391.654C384.237 392.47 383.449 393.11 382.52 393.575C381.602 394.028 380.571 394.255 379.426 394.255C378.893 394.255 378.406 394.198 377.964 394.085C377.522 393.983 377.12 393.836 376.757 393.643C376.394 393.45 376.054 393.218 375.737 392.946C375.431 392.663 375.136 392.351 374.853 392.011L374.666 393.184C374.598 393.479 374.479 393.688 374.309 393.813C374.15 393.938 373.929 394 373.646 394H370.875ZM379.035 379.55C378.162 379.55 377.414 379.737 376.791 380.111C376.179 380.474 375.607 380.989 375.074 381.658V389.478C375.55 390.067 376.066 390.481 376.621 390.719C377.188 390.946 377.8 391.059 378.457 391.059C379.092 391.059 379.664 390.94 380.174 390.702C380.684 390.464 381.115 390.101 381.466 389.614C381.829 389.127 382.106 388.515 382.299 387.778C382.492 387.03 382.588 386.152 382.588 385.143C382.588 384.123 382.503 383.262 382.333 382.559C382.174 381.845 381.942 381.267 381.636 380.825C381.33 380.383 380.956 380.06 380.514 379.856C380.083 379.652 379.59 379.55 379.035 379.55ZM394.686 368.738V394H390.487V368.738H394.686ZM406.653 376.286C407.753 376.286 408.761 376.462 409.679 376.813C410.609 377.164 411.408 377.68 412.076 378.36C412.745 379.029 413.266 379.856 413.64 380.842C414.014 381.817 414.201 382.933 414.201 384.191C414.201 384.508 414.184 384.775 414.15 384.99C414.128 385.194 414.077 385.358 413.997 385.483C413.929 385.596 413.833 385.681 413.708 385.738C413.584 385.783 413.425 385.806 413.232 385.806H402.454C402.579 387.597 403.061 388.911 403.899 389.75C404.738 390.589 405.849 391.008 407.231 391.008C407.911 391.008 408.495 390.929 408.982 390.77C409.481 390.611 409.912 390.436 410.274 390.243C410.648 390.05 410.971 389.875 411.243 389.716C411.527 389.557 411.799 389.478 412.059 389.478C412.229 389.478 412.377 389.512 412.501 389.58C412.626 389.648 412.734 389.744 412.824 389.869L414.048 391.399C413.584 391.943 413.062 392.402 412.484 392.776C411.906 393.139 411.3 393.433 410.665 393.66C410.042 393.875 409.402 394.028 408.744 394.119C408.098 394.21 407.469 394.255 406.857 394.255C405.645 394.255 404.517 394.057 403.474 393.66C402.432 393.252 401.525 392.657 400.754 391.875C399.984 391.082 399.377 390.107 398.935 388.951C398.493 387.784 398.272 386.435 398.272 384.905C398.272 383.715 398.465 382.599 398.85 381.556C399.236 380.502 399.785 379.59 400.499 378.819C401.225 378.037 402.103 377.419 403.134 376.966C404.177 376.513 405.35 376.286 406.653 376.286ZM406.738 379.295C405.514 379.295 404.557 379.641 403.865 380.332C403.174 381.023 402.732 382.004 402.539 383.273H410.427C410.427 382.729 410.354 382.219 410.206 381.743C410.059 381.256 409.832 380.831 409.526 380.468C409.22 380.105 408.835 379.822 408.37 379.618C407.906 379.403 407.362 379.295 406.738 379.295Z" fill="white"/>
</svg>
