<svg width="136" height="153" viewBox="0 0 136 153" fill="none" xmlns="http://www.w3.org/2000/svg">
<path d="M105.833 59.3958C98.5522 59.3958 92.6667 53.4843 92.6667 46.1614C92.6667 38.8437 98.5522 32.9323 105.833 32.9323C113.12 32.9323 119 38.8698 119 46.1614C119 53.4583 113.089 59.3958 105.833 59.3958Z" fill="#F8B319"/>
<mask id="mask0_400_510" style="mask-type:luminance" maskUnits="userSpaceOnUse" x="36" y="22" width="44" height="42">
<path d="M36.6667 22.0312H79.3334V64H36.6667V22.0312Z" fill="white"/>
</mask>
<g mask="url(#mask0_400_510)">
<path d="M79.0991 42.9896C79.0991 54.5677 69.7658 63.9271 58.271 63.9271C46.7553 63.9271 37.4168 54.5417 37.4168 42.9896C37.3908 31.4115 46.7241 22.0312 58.2449 22.0312C69.7658 22.0312 79.0991 31.4115 79.0991 42.9896Z" fill="#F8B319"/>
</g>
<mask id="mask1_400_510" style="mask-type:luminance" maskUnits="userSpaceOnUse" x="0" y="60" width="28" height="63">
<path d="M0.713623 60H27.3334V122.667H0.713623V60Z" fill="white"/>
</mask>
<g mask="url(#mask1_400_510)">
<path d="M14.0835 60.0469H14.1929L14.271 60.073L14.3804 60.1042L14.4325 60.1302L14.5158 60.1563L14.5939 60.1823L14.6772 60.2084L14.7554 60.2396L14.8387 60.2657L14.9481 60.2917L15.0002 60.3177L15.1095 60.3438L15.1616 60.375L15.271 60.4011L15.3231 60.4271L15.3491 60.4532L15.4845 60.5105L15.62 60.5625H15.6772L15.8387 60.6146L16.1616 60.7813H16.1877C16.3491 60.8594 16.5106 60.9427 16.672 61.0521L16.7814 61.1042L16.8075 61.1302L16.8908 61.1875L16.9689 61.2396L17.0262 61.2657L17.1304 61.349L17.1877 61.375L17.2918 61.4584L17.3491 61.4844C17.4272 61.5677 17.5366 61.6459 17.62 61.7032L17.646 61.7292L17.7814 61.8386L17.8075 61.8646C18.1043 62.1355 18.4012 62.4063 18.6981 62.7344C20.2606 64.4427 21.6929 66.9063 22.8231 69.9427L22.9064 70.1355L22.9325 70.1875L22.9585 70.2188L23.12 70.6771L23.146 70.7292L23.1772 70.7605C23.2293 70.9219 23.2814 71.0834 23.3647 71.2761V71.3282L23.5262 71.8438L23.5522 71.8959L23.5783 71.9532L23.7397 72.4375L23.7658 72.5209L23.9012 72.9532L23.9325 73.0625L23.9585 73.1459L24.0939 73.6042L24.146 73.7396L24.2814 74.2292L24.3075 74.3386L24.4429 74.8802V74.9323L24.4689 75.0157L24.5783 75.5313V75.5834L24.6043 75.6407L24.7397 76.2084V76.2657L24.8752 76.8594V76.9427L24.9845 77.5365V77.5677L25.0887 78.1615L25.1147 78.2448V78.2709L25.2241 78.8125L25.2502 78.9219V78.974L25.3595 79.599V79.625L25.4429 80.224L25.4689 80.3594L25.547 80.9532V81.0105L25.5783 81.1198L25.6304 81.6042L25.6564 81.7969L25.7397 82.3646V82.5L25.7918 83.099V83.2605L25.8752 83.9115V83.9636L25.9272 84.6407V84.724L25.9793 85.349V85.5365L26.0054 86.0521V86.2709L26.0366 86.9219V87L26.0627 87.6511V87.8959L26.0887 88.4688V88.6302L26.1147 89.224V92.5365L26.0887 93.1303V93.2917L26.0627 93.8646V94.1042L26.0366 94.7553V94.8386L26.0054 95.4896V95.7084L25.9793 96.25V96.4375L25.9272 97.0625V97.1459L25.8752 97.823V97.875L25.7918 98.5521V98.6615L25.7085 99.2865V99.3959L25.6304 99.9636L25.6043 100.047L25.5783 100.156L25.521 100.641L25.495 100.75V100.802L25.4116 101.401L25.3856 101.537L25.3075 102.162L25.1981 102.813L25.172 102.891L25.0627 103.542V103.573L24.9533 104.224V104.302L24.8231 104.927V104.953L24.6877 105.578V105.604C24.6304 105.823 24.5783 106.037 24.5262 106.255V106.281L24.3595 106.906V106.932L24.1981 107.505L24.172 107.583L24.0366 108.125L24.0106 108.208L23.8491 108.75L23.8231 108.776L23.797 108.885L23.6616 109.318L23.6356 109.401L23.4741 109.917L23.4429 109.943L23.4168 110C23.3647 110.188 23.3075 110.349 23.2554 110.51V110.542L23.0679 111.026L23.0418 111.057L23.0106 111.109L22.8491 111.568L22.8231 111.599V111.625L22.745 111.844C21.3647 115.448 19.6408 118.24 17.6981 119.922C17.4533 120.141 17.1877 120.354 16.9168 120.521L16.7554 120.625L16.5939 120.734L16.271 120.901L16.1043 120.979L15.9429 121.063L15.7814 121.141L15.62 121.224L15.4585 121.276L15.297 121.333L15.1356 121.385L14.9741 121.443L14.6512 121.547L14.4897 121.578L14.1668 121.63L14.0002 121.656L13.8387 121.688H13.4897C13.3804 121.688 13.2762 121.688 13.1668 121.656H13.0575C13.0054 121.656 12.922 121.63 12.87 121.63L12.7606 121.604C12.6825 121.578 12.6252 121.578 12.547 121.578L12.4377 121.547C12.3543 121.521 12.3022 121.521 12.2241 121.495L12.1147 121.469C12.0627 121.443 11.9793 121.443 11.896 121.412L11.7918 121.385C11.7345 121.359 11.6564 121.333 11.5991 121.333L11.4689 121.276L11.3022 121.224L11.1408 121.141L10.9793 121.063L10.8179 120.979L10.6564 120.901L10.521 120.818L10.3335 120.708L10.2241 120.625L10.0627 120.521L9.9012 120.412L9.76579 120.302L9.44287 120.083L9.30745 119.974L9.17204 119.87L8.84912 119.599L8.7137 119.49L8.41683 119.193L8.28141 119.026L8.146 118.865L8.01579 118.703L7.88037 118.542L7.71891 118.349L7.60954 118.188L7.44808 117.995L7.3387 117.833L7.20329 117.646L7.09391 117.479L6.93245 117.266L6.82829 117.13L6.66683 116.885L6.55745 116.724L6.42204 116.505L6.31266 116.344L6.17725 116.099L6.07308 115.912L5.91162 115.635L5.82829 115.5L5.66683 115.203L5.5835 115.042L5.42204 114.745L5.34391 114.609L5.1512 114.203L5.12516 114.146C5.04704 113.984 4.98975 113.849 4.91162 113.688L4.88558 113.656L4.72412 113.276L4.66683 113.172V113.141L4.45329 112.656C4.36995 112.49 4.31787 112.302 4.23454 112.141V112.115L4.04704 111.599L4.021 111.568L3.8335 111.057L3.80745 111L3.64079 110.51L3.61475 110.484L3.53662 110.188L3.45329 109.917L3.37516 109.672L3.26579 109.318L3.2137 109.104L3.10433 108.724L3.04704 108.505L2.94287 108.125L2.88558 107.938L2.78141 107.474L2.72412 107.26L2.61995 106.88L2.53662 106.578L2.4585 106.255L2.4012 105.984L2.32308 105.578L2.26579 105.359L2.18766 104.953L2.13037 104.63L2.05225 104.276L1.99495 103.948L1.94287 103.625L1.89079 103.271L1.8335 102.922L1.78141 102.651L1.69808 102.214L1.646 101.917L1.59391 101.589L1.53662 101.182L1.48454 100.833L1.43245 100.531L1.37516 100.125L1.32308 99.8021L1.29704 99.474L1.23975 99.0678L1.2137 98.7709L1.16162 98.3907L1.13558 98.0105L1.10954 97.6615L1.07829 97.25L1.05225 96.9271L1.0262 96.5469L1.00016 96.1928L0.974121 95.8125L0.942871 95.4063L0.916829 95.1094L0.890788 94.6771L0.864746 94.3803L0.838704 93.8907V93.8646L0.812663 93.1823V93.1042L0.781413 92.3959V92.3438C0.781413 91.8282 0.755371 91.3386 0.755371 90.823C0.755371 73.823 6.42204 60.0469 13.4377 60.0469C13.6772 59.9948 13.87 60.0209 14.0835 60.0469Z" fill="#F8B319"/>
</g>
<mask id="mask2_400_510" style="mask-type:luminance" maskUnits="userSpaceOnUse" x="0" y="52" width="136" height="101">
<path d="M0.713623 52H135.297V152.031H0.713623V52Z" fill="white"/>
</mask>
<g mask="url(#mask2_400_510)">
<path d="M122.531 52.6198C129.844 53.1041 135.672 59.2604 135.672 66.7187V119.651C135.672 127.432 129.359 133.781 121.615 133.781H65.0156C63.3958 133.781 62.0781 135.109 62.0781 136.734V152.031L42.0833 134.62C41.4375 134.078 40.7396 133.807 39.901 133.807H36.6094C29.7031 133.807 23.901 128.708 22.7448 122.094V121.714C20.4792 125.562 17.724 127.839 14.7292 127.839C7.01563 127.839 0.78125 112.656 0.78125 93.9427C0.78125 93.6198 0.78125 93.2916 0.78125 92.9687C0.999999 110.187 6.79688 123.964 13.9219 123.964C17.2917 123.964 20.3958 120.87 22.7135 115.745C25.3854 109.891 27.0885 101.427 27.0885 91.9895C27.0885 82.5573 25.4115 74.0937 22.7135 68.2343C20.5052 61.4583 16.349 58.7708 11.224 59.6406C15.6198 58.2864 20.2083 60.1302 22.7135 64.3593C23.6875 58.6666 28.1094 54.0833 33.724 52.9166C37.6354 62.651 47.1042 69.5364 58.2188 69.5364C69.4167 69.5364 78.9896 62.5156 82.8229 52.6198H89.0833C91.6458 59.3698 98.1719 64.1666 105.807 64.1666C113.443 64.1406 119.943 59.3698 122.531 52.6198ZM36.151 67.2343C33.9635 67.2343 32.1875 69.0208 32.1875 71.2187C32.1875 73.4166 33.9635 75.2083 36.151 75.2083C38.3385 75.2083 40.1146 73.4166 40.1146 71.2187C40.1146 69.0208 38.3385 67.2343 36.151 67.2343ZM94.5573 95.5989L80.8281 87.625L67.0938 79.651C66.0417 79.0312 64.8021 79.0312 63.75 79.651C62.6979 80.276 62.0781 81.3333 62.0781 82.5833V114.417C62.0781 115.667 62.6979 116.724 63.75 117.344C64.8281 117.969 66.0417 117.969 67.0938 117.344L80.8281 109.375L94.5573 101.401C95.6354 100.776 96.2292 99.7187 96.2292 98.4739C96.2292 97.2239 95.6354 96.2239 94.5573 95.5989Z" fill="#F8B319"/>
</g>
<mask id="mask3_400_510" style="mask-type:luminance" maskUnits="userSpaceOnUse" x="91" y="16" width="37" height="42">
<path d="M91.9114 16.7135H127.911V57.7135H91.9114V16.7135Z" fill="white"/>
</mask>
<g mask="url(#mask3_400_510)">
<path d="M98.3645 35.0573C99.4635 33.651 100.463 32.1667 101.25 30.5729C102.703 27.6406 103.437 24.3333 105.391 21.7031C107.406 18.9896 110.656 17.224 114.052 16.9687C117.443 16.7135 120.911 17.9583 123.38 20.276C126.323 23.0312 127.75 27.1302 127.807 31.1458C127.885 36.3802 125.818 41.4635 122.901 45.8333C119.542 50.8594 114.802 55.25 108.948 56.8906C106.828 57.4896 104.588 57.7135 102.401 57.4219C100.219 57.1354 98.0885 56.3229 96.3437 54.9844C94.7447 53.7604 93.4843 52.099 92.776 50.2187C92.0676 48.3385 91.9218 46.2552 92.401 44.3073C92.8385 42.5104 93.7864 40.875 94.8801 39.3854C95.9739 37.8906 97.2239 36.5156 98.3645 35.0573Z" fill="#F8B319"/>
</g>
<mask id="mask4_400_510" style="mask-type:luminance" maskUnits="userSpaceOnUse" x="91" y="18" width="37" height="40">
<path d="M91.9114 18.6666H127.911V57.7135H91.9114V18.6666Z" fill="white"/>
</mask>
<g mask="url(#mask4_400_510)">
<path d="M121.995 19.177C123.682 23.6562 124.052 28.6197 122.963 33.2812C122.135 36.8124 120.474 40.1978 117.906 42.7812C115.338 45.3593 111.828 47.0885 108.172 47.203C104.724 47.3124 101.25 45.9478 98.8072 43.5312C97.3645 42.0937 96.302 40.2968 95.6874 38.3645C95.4218 38.703 95.1353 39.0312 94.8801 39.3853C93.7864 40.8749 92.8385 42.5103 92.401 44.302C91.9218 46.2499 92.0676 48.3437 92.776 50.2187C93.4791 52.0989 94.7447 53.7603 96.3489 54.9843C98.0885 56.3228 100.219 57.1301 102.406 57.4218C104.588 57.7083 106.828 57.4895 108.953 56.8905C114.802 55.2447 119.542 50.8593 122.901 45.8333C125.818 41.4635 127.885 36.3801 127.807 31.1458C127.75 27.1353 126.323 23.0312 123.38 20.2708C122.953 19.8697 122.484 19.5103 121.995 19.177Z" fill="#F8B319"/>
</g>
<path d="M119.901 33.8646C120.078 33.724 120.323 33.6771 120.537 33.7448C120.75 33.8073 120.927 33.9792 121 34.1927C121.037 34.3073 121.042 34.4323 121.016 34.5521C120.99 34.6667 120.932 34.7813 120.849 34.8698C120.766 34.9583 120.656 35.0261 120.542 35.0625C120.427 35.099 120.302 35.1042 120.182 35.0781C120.052 35.0469 119.932 34.9844 119.844 34.8958C119.75 34.8021 119.682 34.6875 119.656 34.5573C119.625 34.4323 119.636 34.2969 119.677 34.1771C119.719 34.0573 119.797 33.9479 119.901 33.8646Z" fill="#D7A041"/>
<path d="M96.9062 44.2656C96.9948 44.0937 97.1302 43.9427 97.2916 43.8437C97.4583 43.7447 97.6562 43.6927 97.8489 43.6979C98.0416 43.6979 98.2343 43.7604 98.3958 43.8697C98.5573 43.9739 98.6823 44.1302 98.7604 44.3072C98.8385 44.4947 98.8646 44.7031 98.8229 44.9062C98.7812 45.1041 98.6823 45.2864 98.5364 45.427C98.3906 45.5729 98.1979 45.6666 97.9948 45.6979C97.7916 45.7343 97.5833 45.7031 97.3958 45.6197C97.151 45.5052 96.9583 45.2916 96.8698 45.0416C96.776 44.7916 96.7916 44.5052 96.9114 44.2656H96.9062Z" fill="#D7A041"/>
<path d="M115.479 21.6302C115.646 21.5 115.88 21.4531 116.089 21.5156C116.292 21.5781 116.464 21.7448 116.526 21.9479C116.563 22.0573 116.568 22.177 116.542 22.2864C116.516 22.401 116.464 22.5104 116.386 22.5937C116.307 22.677 116.203 22.7448 116.094 22.776C115.979 22.8125 115.86 22.8177 115.745 22.7916C115.625 22.7656 115.511 22.7031 115.422 22.6145C115.333 22.5312 115.271 22.4166 115.245 22.2968C115.219 22.177 115.224 22.0468 115.266 21.9323C115.307 21.8125 115.38 21.7083 115.479 21.6302Z" fill="#D7A041"/>
<path d="M106.396 28.9219C106.63 28.7396 106.953 28.6771 107.24 28.7605C107.526 28.849 107.766 29.0782 107.854 29.3594C107.911 29.5157 107.917 29.6823 107.875 29.8386C107.844 30.0001 107.766 30.1459 107.656 30.2657C107.547 30.3855 107.401 30.474 107.25 30.5209C107.094 30.573 106.927 30.5782 106.766 30.5417C106.594 30.5053 106.438 30.4167 106.313 30.2969C106.193 30.1771 106.104 30.0209 106.063 29.849C106.026 29.6823 106.036 29.5053 106.094 29.3386C106.151 29.1771 106.255 29.0313 106.391 28.9219H106.396Z" fill="#D7A041"/>
<path d="M106.109 52.1719C106.365 51.974 106.713 51.9062 107.021 52C107.328 52.0937 107.583 52.3437 107.682 52.6458C107.74 52.8125 107.745 52.9896 107.708 53.1615C107.672 53.3281 107.588 53.4896 107.474 53.6146C107.354 53.7448 107.203 53.8385 107.036 53.8906C106.87 53.9479 106.687 53.9531 106.516 53.9167C106.333 53.875 106.161 53.7865 106.031 53.6562C105.896 53.526 105.802 53.3542 105.76 53.1719C105.719 52.9948 105.729 52.8021 105.792 52.625C105.854 52.4531 105.969 52.2969 106.115 52.1771L106.109 52.1719Z" fill="#D7A041"/>
<path d="M117.573 44.8594C117.76 44.7135 118.021 44.6614 118.25 44.7291C118.479 44.7969 118.667 44.9844 118.745 45.2083C118.786 45.3333 118.792 45.4635 118.76 45.5937C118.729 45.7187 118.667 45.8385 118.578 45.9323C118.49 46.026 118.38 46.0989 118.255 46.1354C118.13 46.1771 117.995 46.1771 117.87 46.151C117.734 46.1198 117.604 46.0521 117.505 45.9531C117.411 45.8594 117.338 45.7344 117.307 45.5989C117.276 45.4635 117.286 45.3229 117.328 45.1927C117.375 45.0625 117.458 44.9427 117.568 44.8594H117.573Z" fill="#D7A041"/>
<path d="M108.422 40.5104C108.568 40.3958 108.771 40.3593 108.953 40.4114C109.13 40.4635 109.276 40.6093 109.333 40.7864C109.37 40.8802 109.375 40.9844 109.349 41.0833C109.328 41.1823 109.281 41.276 109.214 41.3489C109.146 41.4218 109.057 41.4791 108.958 41.5104C108.859 41.5416 108.755 41.5469 108.656 41.526C108.552 41.5 108.453 41.4479 108.375 41.3698C108.297 41.2968 108.245 41.1979 108.219 41.0937C108.193 40.9896 108.203 40.875 108.234 40.776C108.271 40.6719 108.339 40.5833 108.422 40.5156V40.5104Z" fill="#D7A041"/>
<path d="M107.141 22.1927C107.875 21.2604 108.781 20.4583 109.802 19.8437C110.828 19.2343 111.964 18.802 113.146 18.6145C113.526 18.552 113.917 18.5156 114.302 18.5781C114.682 18.6354 115.057 18.7968 115.323 19.0781C115.547 19.3177 115.672 19.6354 115.708 19.9583C115.74 20.2864 115.677 20.6145 115.562 20.9218C115.323 21.526 114.859 22.0208 114.391 22.4739C113.641 23.1927 112.849 23.8593 112.099 24.5781C111.578 25.0781 111.078 25.6041 110.51 26.0573C109.943 26.5104 109.297 26.8854 108.583 27.0416C108.187 27.125 107.776 27.1354 107.38 27.0364C106.99 26.9375 106.62 26.7239 106.375 26.4062C106.135 26.1041 106.016 25.7239 105.984 25.3385C105.958 24.9583 106.026 24.5729 106.125 24.2031C106.323 23.4739 106.672 22.7864 107.141 22.1927Z" fill="#E7CB94"/>
<mask id="mask5_400_510" style="mask-type:luminance" maskUnits="userSpaceOnUse" x="36" y="0" width="56" height="65">
<path d="M36.6667 0.661499H91.5157V64.6615H36.6667V0.661499Z" fill="white"/>
</mask>
<g mask="url(#mask5_400_510)">
<path d="M46.3751 29.2969C48.0574 27.1042 49.5834 24.7917 50.7866 22.3021C53.0053 17.724 54.1303 12.5625 57.1095 8.45835C60.1876 4.21876 65.1616 1.46355 70.3438 1.06251C75.5261 0.661471 80.8282 2.60418 84.5991 6.22397C89.0938 10.5313 91.2709 16.9271 91.3647 23.1927C91.4845 31.3646 88.323 39.3021 83.8647 46.1198C78.7345 53.9636 71.4897 60.8177 62.547 63.3854C59.3074 64.3177 55.8855 64.6667 52.547 64.2136C49.2084 63.7604 45.9532 62.4948 43.2918 60.4063C40.8438 58.4948 38.9168 55.9011 37.8334 52.9688C36.7553 50.0365 36.5313 46.7761 37.2605 43.7344C37.9376 40.9375 39.3803 38.3854 41.0522 36.0521C42.7241 33.7188 44.6355 31.5729 46.3751 29.2969Z" fill="#F8B319"/>
</g>
<mask id="mask6_400_510" style="mask-type:luminance" maskUnits="userSpaceOnUse" x="36" y="4" width="56" height="61">
<path d="M36.6667 4H91.5157V64.6615H36.6667V4Z" fill="white"/>
</mask>
<g mask="url(#mask6_400_510)">
<path d="M82.4845 4.51038C85.0626 11.5 85.6251 19.2552 83.9584 26.526C82.698 32.0416 80.1615 37.3281 76.2345 41.3541C72.3126 45.3854 66.948 48.0781 61.3595 48.2604C56.0886 48.4323 50.7865 46.302 47.0522 42.526C44.8438 40.2864 43.2188 37.4791 42.2865 34.4635C41.8751 34.9895 41.448 35.5052 41.0522 36.052C39.3803 38.3854 37.9324 40.9375 37.2605 43.7343C36.5313 46.776 36.7501 50.0364 37.8334 52.9687C38.9167 55.901 40.849 58.4948 43.2917 60.4062C45.9584 62.4895 49.2084 63.7604 52.547 64.2135C55.8855 64.6614 59.3126 64.3125 62.5522 63.3854C71.4949 60.8177 78.7345 53.9687 83.8647 46.1198C88.323 39.302 91.4845 31.3645 91.3647 23.1979C91.2709 16.9323 89.0938 10.5312 84.599 6.22392C83.9428 5.59371 83.224 5.03642 82.4845 4.51038Z" fill="#F8B319"/>
</g>
<path d="M79.2812 27.4375C79.552 27.2188 79.927 27.1459 80.2551 27.25C80.5832 27.349 80.8541 27.6198 80.9582 27.9532C81.0155 28.1302 81.026 28.3229 80.9843 28.5104C80.9426 28.6927 80.8541 28.8698 80.7291 29.0052C80.6041 29.1459 80.4374 29.2552 80.2603 29.3073C80.0832 29.3646 79.8905 29.375 79.7082 29.3334C79.5155 29.2813 79.3332 29.1875 79.1926 29.0469C79.052 28.9011 78.953 28.7188 78.9062 28.5209C78.8593 28.3229 78.8749 28.1146 78.9374 27.9271C79.0051 27.7344 79.1249 27.5625 79.2812 27.4375Z" fill="#D7A041"/>
<path d="M44.1511 43.6719C44.2813 43.4011 44.4844 43.1719 44.7396 43.0157C44.9896 42.8594 45.2917 42.7761 45.5834 42.7865C45.8802 42.7917 46.1771 42.8855 46.4219 43.0573C46.6667 43.224 46.8646 43.4636 46.9792 43.7396C47.1042 44.0313 47.1355 44.3594 47.0782 44.6719C47.0157 44.9792 46.8594 45.2709 46.6355 45.4896C46.4115 45.7136 46.1198 45.8594 45.8125 45.9115C45.5052 45.9688 45.1823 45.9219 44.8959 45.7865C44.5261 45.6094 44.224 45.2761 44.0886 44.8855C43.9532 44.4949 43.974 44.0469 44.1563 43.6719H44.1511Z" fill="#D7A041"/>
<path d="M72.526 8.34376C72.7812 8.13543 73.1406 8.06772 73.4531 8.16147C73.7656 8.26043 74.026 8.52084 74.1249 8.83334C74.1822 9.00522 74.1926 9.19272 74.151 9.3698C74.1093 9.54688 74.026 9.71355 73.9062 9.84376C73.7864 9.97918 73.6301 10.0781 73.4635 10.1302C73.2916 10.1875 73.1093 10.1979 72.9322 10.1563C72.7499 10.1146 72.5729 10.0156 72.4374 9.88022C72.3072 9.7448 72.2083 9.56772 72.1666 9.38022C72.1249 9.19272 72.1354 8.9948 72.1979 8.81251C72.2656 8.63022 72.3749 8.46355 72.526 8.34376Z" fill="#D7A041"/>
<path d="M58.6457 19.7239C58.9999 19.4375 59.4999 19.3385 59.9374 19.4739C60.3749 19.6093 60.7395 19.9687 60.8801 20.4114C60.9582 20.651 60.9687 20.9114 60.9114 21.1562C60.8645 21.401 60.7395 21.6354 60.5728 21.8177C60.4062 22.0052 60.1874 22.1458 59.9478 22.2187C59.7134 22.3021 59.453 22.3073 59.2134 22.2552C58.953 22.1927 58.7082 22.0573 58.5207 21.8698C58.3332 21.677 58.1978 21.4375 58.1405 21.1718C58.0832 20.9114 58.0989 20.6302 58.1822 20.375C58.2707 20.125 58.427 19.8958 58.6353 19.7291L58.6457 19.7239Z" fill="#D7A041"/>
<path d="M58.2136 56.0208C58.599 55.7083 59.1355 55.6041 59.6042 55.7499C60.073 55.8906 60.4636 56.2812 60.6146 56.7551C60.698 57.0104 60.7084 57.2916 60.6563 57.5572C60.599 57.8229 60.474 58.0729 60.2917 58.2708C60.1094 58.4687 59.8751 58.6197 59.6199 58.7031C59.3699 58.7864 59.0886 58.7968 58.8282 58.7447C58.5521 58.677 58.2917 58.5364 58.0886 58.3281C57.8855 58.1249 57.7396 57.8645 57.6771 57.5781C57.6146 57.2968 57.6303 56.9999 57.724 56.7239C57.8178 56.4531 57.9949 56.2083 58.2136 56.026V56.0208Z" fill="#D7A041"/>
<path d="M75.724 44.599C76.0104 44.3698 76.4115 44.2917 76.7604 44.4011C77.1094 44.5053 77.401 44.7969 77.5104 45.1459C77.5781 45.3386 77.5833 45.5469 77.5365 45.7448C77.4948 45.9428 77.3958 46.1251 77.2656 46.2761C77.1302 46.4219 76.9531 46.5365 76.7656 46.5938C76.5781 46.6615 76.3698 46.6615 76.1771 46.6198C75.9688 46.5678 75.776 46.4636 75.625 46.3126C75.474 46.1615 75.3698 45.9636 75.3177 45.7553C75.2708 45.5469 75.2865 45.323 75.3542 45.1198C75.4271 44.9167 75.5521 44.7344 75.7188 44.599H75.724Z" fill="#D7A041"/>
<path d="M61.7448 37.8125C61.9635 37.6354 62.276 37.5729 62.552 37.6562C62.8229 37.7396 63.052 37.9635 63.1406 38.2396C63.1875 38.3906 63.1927 38.5521 63.1614 38.7083C63.1302 38.8594 63.0573 39.0052 62.9479 39.1198C62.8437 39.2396 62.7083 39.3229 62.5625 39.3698C62.4166 39.4219 62.2552 39.4323 62.1041 39.3958C61.9427 39.3541 61.7916 39.276 61.6718 39.1562C61.552 39.0364 61.4687 38.8854 61.4323 38.7239C61.3958 38.5573 61.4114 38.3854 61.4583 38.2239C61.5156 38.0677 61.6145 37.9219 61.7448 37.8177V37.8125Z" fill="#D7A041"/>
<path d="M59.7812 9.21873C60.9062 7.76561 62.2916 6.5156 63.8541 5.55727C65.4166 4.59894 67.1562 3.92706 68.9583 3.63019C69.5416 3.53644 70.1406 3.47915 70.7239 3.5729C71.3125 3.66665 71.8854 3.91665 72.2864 4.35935C72.625 4.73435 72.8229 5.22915 72.8698 5.73435C72.9218 6.23956 72.8333 6.75519 72.651 7.23435C72.2864 8.18227 71.5781 8.9479 70.8593 9.65623C69.7187 10.7812 68.5052 11.8177 67.3593 12.9375C66.5625 13.7239 65.7968 14.5469 64.9323 15.25C64.0625 15.9583 63.0781 16.5469 61.9896 16.7864C61.3854 16.9166 60.75 16.9323 60.151 16.7812C59.552 16.625 58.9948 16.2916 58.6145 15.7969C58.25 15.3229 58.0625 14.7291 58.0208 14.1302C57.9791 13.5364 58.0781 12.9375 58.2291 12.3594C58.5364 11.2239 59.0677 10.151 59.7812 9.22394V9.21873Z" fill="#E7CB94"/>
</svg>
