<svg width="136" height="153" viewBox="0 0 136 153" fill="none" xmlns="http://www.w3.org/2000/svg">
<path d="M105.833 59.3958C98.5522 59.3958 92.6667 53.4843 92.6667 46.1614C92.6667 38.8437 98.5522 32.9323 105.833 32.9323C113.12 32.9323 119 38.8698 119 46.1614C119 53.4583 113.089 59.3958 105.833 59.3958Z" fill="#F8B319"/>
<mask id="mask0_420_511" style="mask-type:luminance" maskUnits="userSpaceOnUse" x="36" y="22" width="44" height="42">
<path d="M36.6667 22.0312H79.3334V64H36.6667V22.0312Z" fill="white"/>
</mask>
<g mask="url(#mask0_420_511)">
<path d="M79.099 42.9896C79.099 54.5677 69.7657 63.9271 58.2709 63.9271C46.7553 63.9271 37.4167 54.5417 37.4167 42.9896C37.3907 31.4115 46.724 22.0312 58.2449 22.0312C69.7657 22.0312 79.099 31.4115 79.099 42.9896Z" fill="#F8B319"/>
</g>
<mask id="mask1_420_511" style="mask-type:luminance" maskUnits="userSpaceOnUse" x="0" y="60" width="28" height="63">
<path d="M0.713623 60H27.3334V122.667H0.713623V60Z" fill="white"/>
</mask>
<g mask="url(#mask1_420_511)">
<path d="M14.0834 60.0469H14.1928L14.2709 60.073L14.3803 60.1042L14.4324 60.1302L14.5157 60.1563L14.5938 60.1823L14.6772 60.2084L14.7553 60.2396L14.8386 60.2657L14.948 60.2917L15.0001 60.3177L15.1094 60.3438L15.1615 60.375L15.2709 60.4011L15.323 60.4271L15.349 60.4532L15.4844 60.5105L15.6199 60.5625H15.6772L15.8386 60.6146L16.1615 60.7813H16.1876C16.349 60.8594 16.5105 60.9427 16.6719 61.0521L16.7813 61.1042L16.8074 61.1302L16.8907 61.1875L16.9688 61.2396L17.0261 61.2657L17.1303 61.349L17.1876 61.375L17.2917 61.4584L17.349 61.4844C17.4272 61.5677 17.5365 61.6459 17.6199 61.7032L17.6459 61.7292L17.7813 61.8386L17.8074 61.8646C18.1042 62.1355 18.4011 62.4063 18.698 62.7344C20.2605 64.4427 21.6928 66.9063 22.823 69.9427L22.9063 70.1355L22.9324 70.1875L22.9584 70.2188L23.1199 70.6771L23.1459 70.7292L23.1772 70.7605C23.2292 70.9219 23.2813 71.0834 23.3647 71.2761V71.3282L23.5261 71.8438L23.5522 71.8959L23.5782 71.9532L23.7397 72.4375L23.7657 72.5209L23.9011 72.9532L23.9324 73.0625L23.9584 73.1459L24.0938 73.6042L24.1459 73.7396L24.2813 74.2292L24.3074 74.3386L24.4428 74.8802V74.9323L24.4688 75.0157L24.5782 75.5313V75.5834L24.6042 75.6407L24.7397 76.2084V76.2657L24.8751 76.8594V76.9427L24.9844 77.5365V77.5677L25.0886 78.1615L25.1147 78.2448V78.2709L25.224 78.8125L25.2501 78.9219V78.974L25.3594 79.599V79.625L25.4428 80.224L25.4688 80.3594L25.5469 80.9532V81.0105L25.5782 81.1198L25.6303 81.6042L25.6563 81.7969L25.7397 82.3646V82.5L25.7917 83.099V83.2605L25.8751 83.9115V83.9636L25.9272 84.6407V84.724L25.9792 85.349V85.5365L26.0053 86.0521V86.2709L26.0365 86.9219V87L26.0626 87.6511V87.8959L26.0886 88.4688V88.6302L26.1147 89.224V92.5365L26.0886 93.1302V93.2917L26.0626 93.8646V94.1042L26.0365 94.7552V94.8386L26.0053 95.4896V95.7084L25.9792 96.25V96.4375L25.9272 97.0625V97.1459L25.8751 97.823V97.875L25.7917 98.5521V98.6615L25.7084 99.2865V99.3959L25.6303 99.9636L25.6042 100.047L25.5782 100.156L25.5209 100.641L25.4949 100.75V100.802L25.4115 101.401L25.3855 101.536L25.3074 102.161L25.198 102.813L25.1719 102.891L25.0626 103.542V103.573L24.9532 104.224V104.302L24.823 104.927V104.953L24.6876 105.578V105.604C24.6303 105.823 24.5782 106.037 24.5261 106.255V106.281L24.3594 106.906V106.932L24.198 107.505L24.1719 107.583L24.0365 108.125L24.0105 108.208L23.849 108.75L23.823 108.776L23.7969 108.885L23.6615 109.318L23.6355 109.401L23.474 109.917L23.4428 109.943L23.4167 110C23.3647 110.188 23.3074 110.349 23.2553 110.51V110.542L23.0678 111.026L23.0417 111.057L23.0105 111.109L22.849 111.568L22.823 111.599V111.625L22.7449 111.844C21.3647 115.448 19.6407 118.24 17.698 119.922C17.4532 120.141 17.1876 120.354 16.9167 120.521L16.7553 120.625L16.5938 120.734L16.2709 120.901L16.1042 120.979L15.9428 121.063L15.7813 121.141L15.6199 121.224L15.4584 121.276L15.2969 121.333L15.1355 121.385L14.974 121.443L14.6511 121.547L14.4897 121.578L14.1667 121.63L14.0001 121.656L13.8386 121.688H13.4897C13.3803 121.688 13.2761 121.688 13.1667 121.656H13.0574C13.0053 121.656 12.9219 121.63 12.8699 121.63L12.7605 121.604C12.6824 121.578 12.6251 121.578 12.5469 121.578L12.4376 121.547C12.3542 121.521 12.3022 121.521 12.224 121.495L12.1147 121.469C12.0626 121.443 11.9792 121.443 11.8959 121.411L11.7917 121.385C11.7344 121.359 11.6563 121.333 11.599 121.333L11.4688 121.276L11.3022 121.224L11.1407 121.141L10.9792 121.063L10.8178 120.979L10.6563 120.901L10.5209 120.818L10.3334 120.708L10.224 120.625L10.0626 120.521L9.90111 120.411L9.7657 120.302L9.44278 120.083L9.30736 119.974L9.17195 119.87L8.84903 119.599L8.71361 119.49L8.41674 119.193L8.28132 119.026L8.1459 118.865L8.0157 118.703L7.88028 118.542L7.71882 118.349L7.60945 118.188L7.44799 117.995L7.33861 117.833L7.2032 117.646L7.09382 117.479L6.93236 117.266L6.8282 117.13L6.66674 116.885L6.55736 116.724L6.42195 116.505L6.31257 116.344L6.17715 116.099L6.07299 115.911L5.91153 115.635L5.8282 115.5L5.66674 115.203L5.5834 115.042L5.42195 114.745L5.34382 114.609L5.15111 114.203L5.12507 114.146C5.04695 113.984 4.98966 113.849 4.91153 113.688L4.88549 113.656L4.72403 113.276L4.66674 113.172V113.141L4.4532 112.656C4.36986 112.49 4.31778 112.302 4.23445 112.141V112.115L4.04695 111.599L4.0209 111.568L3.8334 111.057L3.80736 111L3.6407 110.51L3.61465 110.484L3.53653 110.188L3.4532 109.917L3.37507 109.672L3.2657 109.318L3.21361 109.104L3.10424 108.724L3.04695 108.505L2.94278 108.125L2.88549 107.938L2.78132 107.474L2.72403 107.26L2.61986 106.88L2.53653 106.578L2.4584 106.255L2.40111 105.984L2.32299 105.578L2.2657 105.359L2.18757 104.953L2.13028 104.63L2.05215 104.276L1.99486 103.948L1.94278 103.625L1.8907 103.271L1.8334 102.922L1.78132 102.651L1.69799 102.214L1.6459 101.917L1.59382 101.589L1.53653 101.182L1.48445 100.833L1.43236 100.531L1.37507 100.125L1.32299 99.8021L1.29695 99.474L1.23965 99.0677L1.21361 98.7709L1.16153 98.3907L1.13549 98.0105L1.10945 97.6615L1.0782 97.25L1.05215 96.9271L1.02611 96.5469L1.00007 96.1927L0.97403 95.8125L0.94278 95.4063L0.916738 95.1094L0.890696 94.6771L0.864655 94.3802L0.838613 93.8907V93.8646L0.812571 93.1823V93.1042L0.781321 92.3959V92.3438C0.781321 91.8282 0.75528 91.3386 0.75528 90.823C0.75528 73.823 6.42195 60.0469 13.4376 60.0469C13.6772 59.9948 13.8699 60.0209 14.0834 60.0469Z" fill="#F8B319"/>
</g>
<mask id="mask2_420_511" style="mask-type:luminance" maskUnits="userSpaceOnUse" x="0" y="52" width="136" height="101">
<path d="M0.713623 52H135.297V152.031H0.713623V52Z" fill="white"/>
</mask>
<g mask="url(#mask2_420_511)">
<path d="M122.531 52.6198C129.844 53.1041 135.672 59.2604 135.672 66.7187V119.651C135.672 127.432 129.359 133.781 121.615 133.781H65.0157C63.3959 133.781 62.0782 135.109 62.0782 136.734V152.031L42.0834 134.62C41.4376 134.078 40.7396 133.807 39.9011 133.807H36.6094C29.7032 133.807 23.9011 128.708 22.7449 122.094V121.714C20.4792 125.562 17.724 127.839 14.7292 127.839C7.01569 127.839 0.781311 112.656 0.781311 93.9427C0.781311 93.6198 0.781311 93.2916 0.781311 92.9687C1.00006 110.187 6.79694 123.964 13.9219 123.964C17.2917 123.964 20.3959 120.87 22.7136 115.745C25.3855 109.891 27.0886 101.427 27.0886 91.9895C27.0886 82.5573 25.4115 74.0937 22.7136 68.2343C20.5053 61.4583 16.349 58.7708 11.224 59.6406C15.6199 58.2864 20.2084 60.1302 22.7136 64.3593C23.6876 58.6666 28.1094 54.0833 33.724 52.9166C37.6355 62.651 47.1042 69.5364 58.2188 69.5364C69.4167 69.5364 78.9896 62.5156 82.823 52.6198H89.0834C91.6459 59.3698 98.1719 64.1666 105.807 64.1666C113.443 64.1406 119.943 59.3698 122.531 52.6198ZM36.1511 67.2343C33.9636 67.2343 32.1876 69.0208 32.1876 71.2187C32.1876 73.4166 33.9636 75.2083 36.1511 75.2083C38.3386 75.2083 40.1146 73.4166 40.1146 71.2187C40.1146 69.0208 38.3386 67.2343 36.1511 67.2343ZM94.5574 95.5989L80.8282 87.625L67.0938 79.651C66.0417 79.0312 64.8021 79.0312 63.7501 79.651C62.698 80.276 62.0782 81.3333 62.0782 82.5833V114.417C62.0782 115.667 62.698 116.724 63.7501 117.344C64.8282 117.969 66.0417 117.969 67.0938 117.344L80.8282 109.375L94.5574 101.401C95.6355 100.776 96.2292 99.7187 96.2292 98.4739C96.2292 97.2239 95.6355 96.2239 94.5574 95.5989Z" fill="#F8B319"/>
</g>
<mask id="mask3_420_511" style="mask-type:luminance" maskUnits="userSpaceOnUse" x="91" y="16" width="37" height="42">
<path d="M91.9114 16.7135H127.911V57.7135H91.9114V16.7135Z" fill="white"/>
</mask>
<g mask="url(#mask3_420_511)">
<path d="M98.3645 35.0573C99.4634 33.651 100.463 32.1667 101.25 30.5729C102.703 27.6406 103.437 24.3333 105.391 21.7031C107.406 18.9896 110.656 17.224 114.052 16.9687C117.443 16.7135 120.911 17.9583 123.38 20.276C126.323 23.0312 127.75 27.1302 127.807 31.1458C127.885 36.3802 125.818 41.4635 122.901 45.8333C119.542 50.8594 114.802 55.25 108.948 56.8906C106.828 57.4896 104.588 57.7135 102.401 57.4219C100.219 57.1354 98.0884 56.3229 96.3437 54.9844C94.7447 53.7604 93.4843 52.099 92.7759 50.2188C92.0676 48.3385 91.9218 46.2552 92.4009 44.3073C92.8384 42.5104 93.7864 40.875 94.8801 39.3854C95.9739 37.8906 97.2239 36.5156 98.3645 35.0573Z" fill="#F8B319"/>
</g>
<mask id="mask4_420_511" style="mask-type:luminance" maskUnits="userSpaceOnUse" x="91" y="18" width="37" height="40">
<path d="M91.9114 18.6666H127.911V57.7135H91.9114V18.6666Z" fill="white"/>
</mask>
<g mask="url(#mask4_420_511)">
<path d="M121.995 19.177C123.682 23.6562 124.052 28.6197 122.963 33.2812C122.135 36.8124 120.474 40.1978 117.906 42.7812C115.338 45.3593 111.828 47.0885 108.172 47.203C104.724 47.3124 101.25 45.9478 98.8072 43.5312C97.3645 42.0937 96.302 40.2968 95.6874 38.3645C95.4218 38.703 95.1353 39.0312 94.8801 39.3853C93.7864 40.8749 92.8384 42.5103 92.4009 44.302C91.9218 46.2499 92.0676 48.3437 92.7759 50.2187C93.4791 52.0989 94.7447 53.7603 96.3489 54.9843C98.0884 56.3228 100.219 57.1301 102.406 57.4218C104.588 57.7083 106.828 57.4895 108.953 56.8905C114.802 55.2447 119.542 50.8593 122.901 45.8333C125.818 41.4635 127.885 36.3801 127.807 31.1458C127.75 27.1353 126.323 23.0312 123.38 20.2708C122.953 19.8697 122.484 19.5103 121.995 19.177Z" fill="#F8B319"/>
</g>
<path d="M119.901 33.8646C120.078 33.724 120.323 33.6771 120.537 33.7448C120.75 33.8073 120.927 33.9792 121 34.1927C121.037 34.3073 121.042 34.4323 121.016 34.5521C120.99 34.6667 120.932 34.7813 120.849 34.8698C120.766 34.9583 120.656 35.0261 120.542 35.0625C120.427 35.099 120.302 35.1042 120.182 35.0781C120.052 35.0469 119.932 34.9844 119.844 34.8958C119.75 34.8021 119.682 34.6875 119.656 34.5573C119.625 34.4323 119.636 34.2969 119.677 34.1771C119.719 34.0573 119.797 33.9479 119.901 33.8646Z" fill="#D7A041"/>
<path d="M96.9062 44.2656C96.9948 44.0937 97.1302 43.9427 97.2916 43.8437C97.4583 43.7447 97.6562 43.6927 97.8489 43.6979C98.0416 43.6979 98.2343 43.7604 98.3958 43.8697C98.5573 43.9739 98.6823 44.1302 98.7604 44.3072C98.8385 44.4947 98.8646 44.7031 98.8229 44.9062C98.7812 45.1041 98.6823 45.2864 98.5364 45.427C98.3906 45.5729 98.1979 45.6666 97.9948 45.6979C97.7916 45.7343 97.5833 45.7031 97.3958 45.6197C97.151 45.5052 96.9583 45.2916 96.8698 45.0416C96.776 44.7916 96.7916 44.5052 96.9114 44.2656H96.9062Z" fill="#D7A041"/>
<path d="M115.479 21.6302C115.646 21.5 115.88 21.4531 116.089 21.5156C116.292 21.5781 116.464 21.7448 116.526 21.9479C116.563 22.0573 116.568 22.177 116.542 22.2864C116.516 22.401 116.464 22.5104 116.386 22.5937C116.307 22.677 116.203 22.7448 116.094 22.776C115.979 22.8125 115.86 22.8177 115.745 22.7916C115.625 22.7656 115.511 22.7031 115.422 22.6145C115.333 22.5312 115.271 22.4166 115.245 22.2968C115.219 22.177 115.224 22.0468 115.266 21.9323C115.307 21.8125 115.38 21.7083 115.479 21.6302Z" fill="#D7A041"/>
<path d="M106.396 28.9219C106.63 28.7396 106.953 28.6771 107.24 28.7605C107.526 28.849 107.766 29.0782 107.854 29.3594C107.911 29.5157 107.917 29.6823 107.875 29.8386C107.844 30.0001 107.766 30.1459 107.656 30.2657C107.547 30.3855 107.401 30.474 107.25 30.5209C107.094 30.573 106.927 30.5782 106.766 30.5417C106.594 30.5053 106.438 30.4167 106.313 30.2969C106.193 30.1771 106.104 30.0209 106.063 29.849C106.026 29.6823 106.036 29.5053 106.094 29.3386C106.151 29.1771 106.255 29.0313 106.391 28.9219H106.396Z" fill="#D7A041"/>
<path d="M106.109 52.1719C106.365 51.974 106.713 51.9062 107.021 52C107.328 52.0937 107.583 52.3437 107.682 52.6458C107.74 52.8125 107.745 52.9896 107.708 53.1615C107.672 53.3281 107.588 53.4896 107.474 53.6146C107.354 53.7448 107.203 53.8385 107.036 53.8906C106.87 53.9479 106.687 53.9531 106.516 53.9167C106.333 53.875 106.161 53.7865 106.031 53.6562C105.896 53.526 105.802 53.3542 105.76 53.1719C105.719 52.9948 105.729 52.8021 105.792 52.625C105.854 52.4531 105.969 52.2969 106.115 52.1771L106.109 52.1719Z" fill="#D7A041"/>
<path d="M117.573 44.8594C117.76 44.7135 118.021 44.6614 118.25 44.7291C118.479 44.7969 118.667 44.9844 118.745 45.2083C118.786 45.3333 118.792 45.4635 118.76 45.5937C118.729 45.7187 118.667 45.8385 118.578 45.9323C118.49 46.026 118.38 46.0989 118.255 46.1354C118.13 46.1771 117.995 46.1771 117.87 46.151C117.734 46.1198 117.604 46.0521 117.505 45.9531C117.411 45.8594 117.338 45.7344 117.307 45.5989C117.276 45.4635 117.286 45.3229 117.328 45.1927C117.375 45.0625 117.458 44.9427 117.568 44.8594H117.573Z" fill="#D7A041"/>
<path d="M108.422 40.5104C108.568 40.3958 108.771 40.3593 108.953 40.4114C109.13 40.4635 109.276 40.6093 109.333 40.7864C109.37 40.8802 109.375 40.9844 109.349 41.0833C109.328 41.1823 109.281 41.276 109.214 41.3489C109.146 41.4218 109.057 41.4791 108.958 41.5104C108.859 41.5416 108.755 41.5469 108.656 41.526C108.552 41.5 108.453 41.4479 108.375 41.3698C108.297 41.2968 108.245 41.1979 108.219 41.0937C108.193 40.9896 108.203 40.875 108.234 40.776C108.271 40.6719 108.339 40.5833 108.422 40.5156V40.5104Z" fill="#D7A041"/>
<path d="M107.141 22.1927C107.875 21.2604 108.781 20.4583 109.802 19.8437C110.828 19.2343 111.964 18.802 113.146 18.6145C113.526 18.552 113.917 18.5156 114.302 18.5781C114.682 18.6354 115.057 18.7968 115.323 19.0781C115.547 19.3177 115.672 19.6354 115.708 19.9583C115.74 20.2864 115.677 20.6145 115.562 20.9218C115.323 21.526 114.859 22.0208 114.391 22.4739C113.641 23.1927 112.849 23.8593 112.099 24.5781C111.578 25.0781 111.078 25.6041 110.51 26.0573C109.943 26.5104 109.297 26.8854 108.583 27.0416C108.187 27.125 107.776 27.1354 107.38 27.0364C106.99 26.9375 106.62 26.7239 106.375 26.4062C106.135 26.1041 106.016 25.7239 105.984 25.3385C105.958 24.9583 106.026 24.5729 106.125 24.2031C106.323 23.4739 106.672 22.7864 107.141 22.1927Z" fill="#E7CB94"/>
<mask id="mask5_420_511" style="mask-type:luminance" maskUnits="userSpaceOnUse" x="36" y="0" width="56" height="65">
<path d="M36.6667 0.661499H91.5157V64.6615H36.6667V0.661499Z" fill="white"/>
</mask>
<g mask="url(#mask5_420_511)">
<path d="M46.3751 29.2969C48.0574 27.1042 49.5834 24.7917 50.7865 22.3021C53.0053 17.724 54.1303 12.5625 57.1094 8.45835C60.1876 4.21876 65.1615 1.46355 70.3438 1.06251C75.5261 0.661471 80.8282 2.60418 84.599 6.22397C89.0938 10.5313 91.2709 16.9271 91.3646 23.1927C91.4844 31.3646 88.323 39.3021 83.8646 46.1198C78.7344 53.9636 71.4897 60.8177 62.5469 63.3854C59.3074 64.3177 55.8855 64.6667 52.5469 64.2136C49.2084 63.7604 45.9532 62.4948 43.2917 60.4063C40.8438 58.4948 38.9167 55.9011 37.8334 52.9688C36.7553 50.0365 36.5313 46.7761 37.2605 43.7344C37.9376 40.9375 39.3803 38.3854 41.0521 36.0521C42.724 33.7188 44.6355 31.5729 46.3751 29.2969Z" fill="#F8B319"/>
</g>
<mask id="mask6_420_511" style="mask-type:luminance" maskUnits="userSpaceOnUse" x="36" y="4" width="56" height="61">
<path d="M36.6667 4H91.5157V64.6615H36.6667V4Z" fill="white"/>
</mask>
<g mask="url(#mask6_420_511)">
<path d="M82.4845 4.51038C85.0626 11.5 85.6251 19.2552 83.9584 26.526C82.698 32.0416 80.1615 37.3281 76.2345 41.3541C72.3126 45.3854 66.948 48.0781 61.3595 48.2604C56.0886 48.4323 50.7865 46.302 47.0522 42.526C44.8438 40.2864 43.2188 37.4791 42.2865 34.4635C41.8751 34.9895 41.448 35.5052 41.0522 36.052C39.3803 38.3854 37.9324 40.9375 37.2605 43.7343C36.5313 46.776 36.7501 50.0364 37.8334 52.9687C38.9167 55.901 40.849 58.4948 43.2917 60.4062C45.9584 62.4895 49.2084 63.7604 52.547 64.2135C55.8855 64.6614 59.3126 64.3125 62.5522 63.3854C71.4949 60.8177 78.7345 53.9687 83.8647 46.1198C88.323 39.302 91.4845 31.3645 91.3647 23.1979C91.2709 16.9323 89.0938 10.5312 84.599 6.22392C83.9428 5.59371 83.224 5.03642 82.4845 4.51038Z" fill="#F8B319"/>
</g>
<path d="M79.2812 27.4375C79.552 27.2188 79.927 27.1459 80.2551 27.25C80.5832 27.349 80.8541 27.6198 80.9582 27.9532C81.0155 28.1302 81.026 28.3229 80.9843 28.5104C80.9426 28.6927 80.8541 28.8698 80.7291 29.0052C80.6041 29.1459 80.4374 29.2552 80.2603 29.3073C80.0832 29.3646 79.8905 29.375 79.7082 29.3334C79.5155 29.2813 79.3332 29.1875 79.1926 29.0469C79.052 28.9011 78.953 28.7188 78.9062 28.5209C78.8593 28.3229 78.8749 28.1146 78.9374 27.9271C79.0051 27.7344 79.1249 27.5625 79.2812 27.4375Z" fill="#D7A041"/>
<path d="M44.1511 43.6719C44.2813 43.4011 44.4844 43.1719 44.7396 43.0157C44.9896 42.8594 45.2917 42.7761 45.5834 42.7865C45.8802 42.7917 46.1771 42.8855 46.4219 43.0573C46.6667 43.224 46.8646 43.4636 46.9792 43.7396C47.1042 44.0313 47.1355 44.3594 47.0782 44.6719C47.0157 44.9792 46.8594 45.2709 46.6355 45.4896C46.4115 45.7136 46.1198 45.8594 45.8125 45.9115C45.5052 45.9688 45.1823 45.9219 44.8959 45.7865C44.5261 45.6094 44.224 45.2761 44.0886 44.8855C43.9532 44.4949 43.974 44.0469 44.1563 43.6719H44.1511Z" fill="#D7A041"/>
<path d="M72.526 8.34376C72.7812 8.13543 73.1406 8.06772 73.4531 8.16147C73.7656 8.26043 74.026 8.52084 74.1249 8.83334C74.1822 9.00522 74.1926 9.19272 74.151 9.3698C74.1093 9.54688 74.026 9.71355 73.9062 9.84376C73.7864 9.97918 73.6301 10.0781 73.4635 10.1302C73.2916 10.1875 73.1093 10.1979 72.9322 10.1563C72.7499 10.1146 72.5729 10.0156 72.4374 9.88022C72.3072 9.7448 72.2083 9.56772 72.1666 9.38022C72.1249 9.19272 72.1354 8.9948 72.1979 8.81251C72.2656 8.63022 72.3749 8.46355 72.526 8.34376Z" fill="#D7A041"/>
<path d="M58.6457 19.7239C58.9999 19.4375 59.4999 19.3385 59.9374 19.4739C60.3749 19.6093 60.7395 19.9687 60.8801 20.4114C60.9582 20.651 60.9687 20.9114 60.9114 21.1562C60.8645 21.401 60.7395 21.6354 60.5728 21.8177C60.4062 22.0052 60.1874 22.1458 59.9478 22.2187C59.7134 22.3021 59.453 22.3073 59.2134 22.2552C58.953 22.1927 58.7082 22.0573 58.5207 21.8698C58.3332 21.677 58.1978 21.4375 58.1405 21.1718C58.0832 20.9114 58.0989 20.6302 58.1822 20.375C58.2707 20.125 58.427 19.8958 58.6353 19.7291L58.6457 19.7239Z" fill="#D7A041"/>
<path d="M58.2136 56.0208C58.599 55.7083 59.1355 55.6041 59.6042 55.7499C60.073 55.8906 60.4636 56.2812 60.6146 56.7551C60.698 57.0104 60.7084 57.2916 60.6563 57.5572C60.599 57.8229 60.474 58.0729 60.2917 58.2708C60.1094 58.4687 59.8751 58.6197 59.6199 58.7031C59.3699 58.7864 59.0886 58.7968 58.8282 58.7447C58.5521 58.677 58.2917 58.5364 58.0886 58.3281C57.8855 58.1249 57.7396 57.8645 57.6771 57.5781C57.6146 57.2968 57.6303 56.9999 57.724 56.7239C57.8178 56.4531 57.9949 56.2083 58.2136 56.026V56.0208Z" fill="#D7A041"/>
<path d="M75.724 44.599C76.0104 44.3698 76.4115 44.2917 76.7604 44.4011C77.1094 44.5053 77.401 44.7969 77.5104 45.1459C77.5781 45.3386 77.5833 45.5469 77.5365 45.7448C77.4948 45.9428 77.3958 46.1251 77.2656 46.2761C77.1302 46.4219 76.9531 46.5365 76.7656 46.5938C76.5781 46.6615 76.3698 46.6615 76.1771 46.6198C75.9688 46.5678 75.776 46.4636 75.625 46.3126C75.474 46.1615 75.3698 45.9636 75.3177 45.7553C75.2708 45.5469 75.2865 45.323 75.3542 45.1198C75.4271 44.9167 75.5521 44.7344 75.7188 44.599H75.724Z" fill="#D7A041"/>
<path d="M61.7448 37.8125C61.9635 37.6354 62.276 37.5729 62.552 37.6562C62.8229 37.7396 63.052 37.9635 63.1406 38.2396C63.1875 38.3906 63.1927 38.5521 63.1614 38.7083C63.1302 38.8594 63.0573 39.0052 62.9479 39.1198C62.8437 39.2396 62.7083 39.3229 62.5625 39.3698C62.4166 39.4219 62.2552 39.4323 62.1041 39.3958C61.9427 39.3541 61.7916 39.276 61.6718 39.1562C61.552 39.0364 61.4687 38.8854 61.4323 38.7239C61.3958 38.5573 61.4114 38.3854 61.4583 38.2239C61.5156 38.0677 61.6145 37.9219 61.7448 37.8177V37.8125Z" fill="#D7A041"/>
<path d="M59.7812 9.21873C60.9062 7.7656 62.2916 6.5156 63.8541 5.55727C65.4166 4.59894 67.1562 3.92706 68.9583 3.63019C69.5416 3.53644 70.1406 3.47915 70.7239 3.5729C71.3125 3.66665 71.8854 3.91665 72.2864 4.35935C72.625 4.73435 72.8229 5.22915 72.8698 5.73435C72.9218 6.23956 72.8333 6.75519 72.651 7.23435C72.2864 8.18227 71.5781 8.9479 70.8593 9.65623C69.7187 10.7812 68.5052 11.8177 67.3593 12.9375C66.5625 13.7239 65.7968 14.5469 64.9323 15.25C64.0625 15.9583 63.0781 16.5469 61.9896 16.7864C61.3854 16.9166 60.75 16.9323 60.151 16.7812C59.552 16.625 58.9948 16.2916 58.6145 15.7969C58.25 15.3229 58.0625 14.7291 58.0208 14.1302C57.9791 13.5364 58.0781 12.9375 58.2291 12.3594C58.5364 11.2239 59.0677 10.151 59.7812 9.22394V9.21873Z" fill="#E7CB94"/>
</svg>
